<?xml version="1.0" standalone="no"?>
<!DOCTYPE svg PUBLIC "-//W3C//DTD SVG 20010904//EN"
 "http://www.w3.org/TR/2001/REC-SVG-20010904/DTD/svg10.dtd">
<svg version="1.0" xmlns="http://www.w3.org/2000/svg"
 width="300.000000pt" height="300.000000pt" viewBox="0 0 300.000000 300.000000"
 preserveAspectRatio="xMidYMid meet">
<metadata>
Created by potrace 1.10, written by Peter Selinger 2001-2011
</metadata>
<g transform="translate(0.000000,300.000000) scale(0.050000,-0.050000)"
fill="#ffffff" stroke="none">
<path d="M0 5749 l0 -250 70 4 c88 6 108 56 53 133 -23 32 -44 79 -49 105 -4
27 -19 75 -32 107 -29 72 9 110 58 59 23 -24 24 -34 5 -41 -14 -5 -25 -23 -25
-39 0 -16 10 -23 22 -16 15 9 18 0 9 -27 -9 -30 -2 -44 26 -53 159 -51 173
-312 18 -335 -62 -9 -69 -56 -8 -56 27 0 53 -9 56 -20 22 -62 135 -44 164 26
24 56 39 69 81 67 44 -2 48 -7 22 -25 -59 -44 9 -122 97 -111 37 4 53 -2 44
-15 -17 -27 75 -30 124 -4 19 10 76 37 126 59 103 45 142 84 149 148 3 25 6
51 7 57 2 7 27 8 56 2 48 -9 52 -5 40 41 -10 40 -4 53 29 61 23 6 37 20 30 31
-7 11 4 17 23 14 48 -8 115 51 81 71 -32 20 -13 39 45 44 25 1 49 19 54 38 5
20 22 36 37 36 17 0 22 12 14 33 -9 23 -5 29 10 19 13 -8 56 1 96 20 40 19 85
35 99 35 15 0 23 7 17 17 -6 9 -379 16 -829 16 l-819 -2 0 -249z"/>
<path d="M1850 5923 c-596 -284 -972 -764 -1123 -1433 -38 -172 -47 -924 -12
-1069 l16 -69 43 112 c24 62 58 188 76 279 50 250 71 312 58 167 -32 -367
-179 -674 -467 -976 -227 -238 -239 -277 -138 -454 97 -170 503 -541 448 -408
-67 158 -75 205 -67 399 9 204 54 366 56 199 2 -214 108 -562 193 -632 52 -44
26 -51 -174 -51 -200 1 -201 1 -190 46 15 59 -93 125 -141 85 -23 -19 -36 -17
-65 9 -25 23 -42 26 -57 11 -32 -32 -107 -3 -92 35 9 22 29 27 76 18 89 -16
105 30 30 86 -39 29 -53 54 -46 81 13 50 -48 83 -131 73 -57 -7 -61 -5 -42 31
14 27 34 36 59 28 58 -18 69 28 19 81 -42 45 -43 50 -12 98 18 27 33 70 33 95
l-1 46 -38 -50 c-34 -44 -40 -46 -52 -15 -17 45 -83 45 -97 0 -22 -76 -10
-914 14 -931 18 -13 18 -19 -1 -27 -48 -20 -33 -285 15 -273 22 6 40 27 40 48
0 27 14 38 49 38 34 0 46 9 39 27 -15 39 97 59 118 21 9 -15 39 -28 67 -28 44
0 48 -5 27 -31 -23 -27 -29 -27 -59 0 -36 33 -121 42 -121 14 0 -32 100 -125
120 -113 11 7 20 3 20 -9 0 -11 14 -21 30 -21 17 0 30 -9 30 -19 0 -11 20 -38
44 -60 24 -23 34 -41 22 -41 -12 0 -33 14 -47 31 -15 19 -43 27 -67 21 -50
-13 -152 89 -152 150 0 39 -2 39 -60 5 -68 -41 -72 -52 -30 -94 17 -17 30 -42
30 -57 0 -14 -16 -3 -35 24 -95 135 -101 105 -103 -519 l-2 -580 80 41 c88 46
101 76 40 92 -47 12 -52 37 -11 53 17 6 34 -4 41 -26 24 -77 130 -70 130 9 0
49 34 70 112 70 35 0 48 -11 48 -40 0 -23 13 -40 31 -40 47 0 168 99 157 128
-13 33 44 80 80 66 26 -10 312 23 329 38 4 3 -7 21 -26 39 -43 44 15 126 62
87 14 -12 42 -16 62 -8 19 8 81 18 136 22 123 8 216 40 198 69 -8 14 -21 14
-41 -2 -32 -27 -88 6 -88 51 0 36 51 51 78 24 17 -17 33 -17 62 2 22 13 54 24
72 24 28 0 29 5 7 31 -15 19 -43 27 -67 21 -22 -6 -52 0 -67 12 -19 16 -39 16
-73 0 -34 -15 -53 -15 -69 1 -27 27 9 102 41 83 12 -8 17 -2 11 14 -5 15 -26
26 -47 24 -21 -3 -51 1 -68 8 -16 7 -57 14 -90 14 -55 2 -60 8 -55 65 4 52 -4
65 -45 75 -56 14 -65 55 -20 92 44 37 37 57 -25 64 -74 8 -85 70 -16 87 56 15
63 29 28 64 -18 18 -18 36 0 77 14 29 22 55 19 57 -53 36 -142 54 -156 31 -20
-33 -80 -11 -80 30 0 41 53 60 88 32 20 -17 33 -15 52 8 13 16 31 25 40 20 26
-16 39 71 19 123 -11 27 -19 129 -19 226 0 112 -11 202 -30 249 -36 84 -69 95
-61 19 3 -29 -1 -76 -9 -105 -11 -41 -16 -26 -22 68 -8 119 59 321 119 358 18
11 -16 155 -41 178 -3 3 13 25 36 50 40 43 43 73 54 590 14 616 72 1190 118
1161 11 -6 14 -31 7 -54 -73 -261 -140 -1631 -82 -1689 7 -7 128 -16 270 -21
l256 -8 15 144 c12 118 9 149 -18 179 -35 38 47 135 195 232 37 24 52 50 50
87 -2 49 50 348 75 429 9 30 2 34 -45 25 l-57 -11 60 28 c57 27 65 45 128 295
70 277 100 363 101 285 1 -44 -88 -457 -112 -518 -10 -27 -5 -32 25 -23 135
41 263 56 438 50 l200 -7 6 115 c3 64 15 115 27 115 15 0 17 -43 8 -130 -10
-88 -7 -130 7 -130 12 0 22 -10 22 -22 0 -12 -13 -17 -30 -11 -20 8 -30 -1
-30 -28 0 -21 10 -39 21 -39 13 0 16 -17 9 -41 -8 -23 -16 -115 -18 -205 -3
-90 -12 -178 -19 -196 -10 -21 0 -39 31 -55 l46 -23 -50 10 -50 11 45 -33 c47
-34 64 -81 20 -56 -14 8 -7 -7 15 -34 22 -26 41 -51 43 -55 2 -4 18 21 36 54
37 73 42 235 6 251 -20 10 -20 14 0 24 14 6 26 44 26 85 1 53 6 63 17 35 13
-34 18 -31 40 24 14 34 20 70 14 81 -7 11 -2 23 11 27 15 5 24 84 27 237 2
126 14 255 28 287 13 33 19 71 13 86 -6 16 -2 23 9 16 26 -16 26 33 0 99 -18
48 -16 50 20 31 32 -17 37 -15 27 10 -6 16 -20 30 -31 30 -10 0 -5 14 13 31
23 24 26 41 11 69 -13 25 -13 42 0 50 11 7 19 28 19 46 -2 28 -5 27 -19 -6
-14 -33 -17 -34 -19 -6 0 19 11 41 27 50 15 9 32 55 37 102 6 47 27 104 47
128 28 30 31 44 13 51 -14 4 -25 17 -25 28 0 11 8 14 18 8 25 -15 42 38 42
135 0 94 23 81 59 -31 21 -66 39 -83 82 -79 6 1 12 -18 14 -42 2 -24 19 -55
38 -69 19 -14 26 -25 16 -26 -11 0 -3 -13 17 -28 23 -17 29 -32 15 -40 -11 -7
-21 -24 -21 -37 1 -18 4 -18 16 -1 10 16 22 8 37 -25 14 -27 16 -53 5 -59 -25
-16 -23 -49 3 -49 12 0 16 9 9 20 -7 11 -3 20 9 20 12 0 21 -48 21 -117 0
-152 18 -238 51 -251 21 -8 25 14 19 99 -9 127 11 141 49 34 36 -103 62 -135
84 -101 10 17 16 2 17 -41 0 -56 5 -64 28 -45 23 20 31 9 42 -62 8 -47 28
-112 45 -144 19 -38 26 -92 20 -155 l-9 -97 80 0 c43 0 114 -10 157 -23 105
-32 108 -26 81 218 -26 249 -75 448 -183 738 -83 226 -75 273 16 92 123 -245
167 -421 225 -909 23 -191 24 -194 85 -217 35 -13 52 -27 38 -33 -14 -5 -25
-18 -25 -29 0 -11 10 -13 23 -5 14 9 18 5 9 -9 -20 -32 -52 -29 -52 5 0 15
-14 39 -32 54 -29 24 -29 20 0 -50 18 -42 32 -81 32 -86 0 -4 10 -2 23 6 14 9
18 5 9 -9 -8 -12 -5 -54 5 -92 17 -59 14 -71 -17 -81 -19 -6 -41 -31 -47 -55
-22 -84 -35 -17 -46 247 -13 310 -19 333 -36 145 -22 -228 -73 -446 -93 -392
-30 81 -258 56 -258 -29 0 -20 58 -26 250 -26 163 0 250 -7 250 -21 0 -12 -9
-16 -20 -9 -45 28 -15 -27 48 -88 51 -49 79 -63 110 -53 30 10 61 -1 104 -38
80 -67 93 -65 116 24 102 379 67 988 -76 1365 -53 139 -52 200 1 80 148 -333
226 -1075 150 -1434 l-26 -123 176 -80 175 -80 43 114 c61 160 98 384 97 593
0 212 -39 434 -78 447 -11 3 -15 15 -9 25 6 10 4 18 -6 18 -9 0 -19 20 -22 45
-3 25 -8 68 -11 95 -3 28 -7 62 -9 76 -2 15 -13 20 -24 13 -13 -8 -13 2 2 25
20 32 16 47 -26 92 -51 56 -88 73 -63 29 8 -14 7 -18 -4 -9 -9 9 -19 43 -20
75 -4 64 -70 182 -83 145 -4 -12 7 -56 24 -97 38 -92 39 -87 -8 -75 -49 13
-98 66 -62 66 15 0 13 11 -8 31 -17 18 -32 40 -33 50 -2 11 -5 30 -7 44 -2 14
5 36 16 50 20 27 -39 112 -67 95 -8 -5 -10 13 -5 41 5 27 2 49 -8 49 -9 0 -48
27 -87 60 -38 33 -63 60 -55 60 8 0 -3 18 -25 40 -22 22 -49 40 -59 40 -10 0
-28 16 -39 35 -13 22 -21 25 -21 9 -1 -20 -9 -19 -32 5 -18 17 -45 31 -60 31
-16 0 -29 7 -29 16 0 30 -82 105 -101 93 -11 -6 -19 -1 -19 12 0 13 -14 18
-31 11 -17 -6 -26 -3 -19 8 6 10 -13 24 -44 30 -31 7 -99 34 -151 60 -53 27
-109 43 -125 37 -17 -6 -30 -1 -30 11 0 12 -15 22 -33 22 -18 0 -47 16 -65 36
-17 19 -50 35 -72 35 -50 -1 -65 65 -18 83 162 62 776 -257 1040 -539 447
-478 641 -983 663 -1730 7 -232 17 -340 31 -331 13 8 16 0 7 -22 -7 -20 -13
-46 -13 -60 0 -13 -13 -42 -30 -63 -27 -35 -28 -24 -17 111 7 83 5 143 -3 135
-9 -8 -28 -5 -43 8 -21 17 -27 13 -27 -18 0 -22 -13 -72 -30 -112 -16 -39 -30
-108 -30 -152 l0 -81 175 -4 c96 -2 193 -2 215 0 173 15 257 19 365 22 l125 2
0 282 0 282 -265 -14 c-345 -19 -472 -75 -290 -128 36 -10 53 -19 39 -20 -15
-1 -21 -11 -14 -22 7 -11 -3 -20 -21 -20 -27 0 -29 -6 -10 -28 16 -20 16 -33
2 -41 -27 -17 -65 6 -50 30 6 10 -2 13 -19 7 -16 -6 -33 -22 -38 -35 -5 -13
-4 -5 1 17 194 881 -412 2063 -1277 2492 l-116 58 -966 -1 -966 0 -160 -76z
m590 48 c0 -29 -101 -110 -149 -119 -31 -6 -71 -23 -88 -40 -37 -32 -35 -32
-133 -32 -49 0 -70 -9 -70 -30 0 -17 -20 -31 -45 -33 -25 -2 -55 -4 -67 -5
-12 -2 -43 -27 -71 -56 -27 -29 -74 -60 -105 -67 -30 -8 -60 -27 -66 -43 -6
-15 -23 -24 -37 -18 -15 5 -29 4 -33 -4 -3 -8 -40 -39 -81 -70 -41 -31 -75
-70 -75 -86 0 -18 -9 -24 -23 -16 -16 10 -20 4 -12 -16 9 -23 0 -28 -40 -20
-42 8 -49 4 -38 -24 8 -23 -5 -50 -37 -80 -28 -26 -50 -53 -50 -62 0 -8 -31
-45 -70 -81 -38 -37 -70 -83 -71 -103 0 -20 -13 -53 -29 -74 -16 -21 -24 -46
-17 -57 16 -26 -33 -198 -68 -239 -16 -18 -23 -43 -15 -55 7 -12 6 -21 -4 -19
-53 9 -70 -5 -58 -51 7 -27 3 -54 -8 -61 -11 -7 -20 -34 -20 -61 0 -27 -8 -49
-19 -49 -10 0 -15 -18 -11 -40 4 -22 -1 -40 -11 -40 -11 0 -19 -35 -19 -79 0
-43 -9 -84 -20 -91 -11 -7 -14 1 -8 19 7 17 2 31 -11 31 -54 0 65 569 165 785
194 421 557 774 1004 977 177 80 510 151 510 109z m-470 -486 c-8 -19 -45
-118 -82 -220 -72 -199 -67 -156 -148 -1133 -40 -476 -52 -528 -122 -531 -21
-2 44 743 94 1059 56 359 203 860 252 860 12 0 14 -15 6 -35z m1758 -129 c-6
-9 3 -16 18 -16 33 0 49 -44 45 -125 -1 -30 6 -55 16 -55 11 0 0 -17 -24 -37
-23 -20 -38 -42 -32 -47 6 -6 -10 -10 -35 -8 -53 2 -123 64 -106 93 7 10 -1
14 -16 8 -16 -6 -34 1 -39 16 -12 32 52 182 70 164 6 -7 17 6 24 29 11 34 19
37 51 17 21 -12 33 -30 28 -39z m676 -91 c74 -111 119 -205 111 -229 -4 -12
-36 32 -71 96 -36 65 -79 138 -97 163 -17 25 -23 45 -12 45 11 0 42 -34 69
-75z m-117 -49 c-5 -9 5 -36 22 -60 57 -82 31 -154 -59 -165 -23 -3 -73 59
-66 83 2 9 -3 37 -12 62 -20 58 17 104 79 99 25 -2 42 -11 36 -19z m-2117 -71
c-16 -41 -32 -95 -36 -119 -3 -25 -14 -52 -23 -60 -10 -9 -11 -6 -4 7 7 13 4
27 -6 30 -11 4 3 54 32 112 61 122 80 138 37 30z m150 -24 c6 -2 -11 -12 -36
-22 -26 -10 -42 -27 -36 -36 6 -10 -7 -34 -28 -53 -21 -19 -33 -45 -26 -56 7
-12 2 -14 -12 -5 -23 14 -19 41 19 143 14 37 65 50 119 29z m-923 -159 c19
-12 21 -21 5 -31 -12 -7 -29 -9 -38 -3 -9 5 -17 -10 -17 -34 -2 -67 -29 -135
-49 -123 -11 7 -10 27 1 48 11 19 15 40 10 46 -14 13 26 115 46 115 8 0 27 -8
42 -18z m-1290 -2331 c15 -39 -42 -84 -71 -55 -27 27 -6 84 31 84 16 0 34 -13
40 -29z m-14 -302 c17 -44 -25 -85 -56 -54 -25 25 -9 85 23 85 12 0 27 -14 33
-31z m153 3 c14 -35 -2 -52 -49 -52 -42 0 -51 51 -12 67 41 16 50 14 61 -15z
m-86 -162 c20 -24 18 -32 -10 -43 -35 -13 -76 27 -57 57 15 24 39 19 67 -14z
m345 -142 c22 -22 -9 -68 -45 -68 -36 0 -67 46 -45 68 6 7 27 12 45 12 18 0
39 -5 45 -12z m-225 -37 c0 -36 -77 -62 -104 -35 -30 30 -1 64 55 64 29 0 49
-12 49 -29z m-105 -95 c-5 -25 -95 -83 -108 -69 -19 19 21 72 60 79 24 5 45
10 48 11 3 2 3 -8 0 -21z m413 -22 c17 -27 15 -39 -8 -54 -55 -35 -80 -22 -80
41 0 70 48 77 88 13z m143 -32 c-19 -31 -62 -27 -90 6 -18 23 -16 33 13 49 42
24 100 -18 77 -55z m-350 -82 c27 0 0 -55 -34 -69 -44 -16 -65 3 -52 50 6 26
21 37 39 30 16 -6 37 -11 47 -11z m285 -28 c12 -30 -21 -72 -58 -72 -28 0 -53
56 -37 82 17 28 83 21 95 -10z m129 -7 c11 -33 -52 -56 -79 -29 -11 11 -14 31
-6 43 17 29 74 19 85 -14z m145 -6 c0 -52 -66 -46 -76 6 -5 24 6 35 35 35 28
0 41 -13 41 -41z m-340 -169 c0 -32 -50 -53 -90 -37 -40 15 -38 61 5 84 38 22
85 -4 85 -47z m130 10 c0 -17 -20 -33 -45 -36 -44 -7 -62 32 -31 63 23 24 76
5 76 -27z m138 9 c6 -18 -2 -36 -20 -42 -37 -15 -78 21 -59 51 20 32 65 27 79
-9z m70 -136 c34 -42 -26 -88 -68 -53 -30 25 -9 80 30 80 8 0 25 -12 38 -27z
m-268 -33 c0 -16 -20 -33 -45 -36 -35 -5 -45 3 -45 36 0 33 10 41 45 36 25 -3
45 -19 45 -36z m130 11 c0 -16 -8 -34 -18 -40 -31 -19 -80 11 -69 41 15 37 87
36 87 -1z m-614 -99 c12 -31 -22 -72 -60 -72 -14 0 -26 -9 -26 -20 0 -46 -36
-16 -44 37 -7 51 -3 56 47 53 30 -2 51 4 45 13 -6 9 -2 17 9 17 10 0 23 -12
29 -28z m382 -24 c40 -15 41 -56 2 -88 -40 -33 -90 7 -76 61 11 42 24 46 74
27z m150 -6 c31 -20 13 -62 -28 -62 -34 0 -57 33 -40 60 15 24 31 25 68 2z
m158 -27 c5 -24 -6 -35 -33 -35 -46 0 -72 30 -52 61 19 32 78 14 85 -26z m130
32 c7 -7 3 -30 -8 -51 -23 -43 -78 -17 -78 36 0 28 62 39 86 15z m-678 -130
c20 4 45 -5 54 -20 26 -41 21 -57 -12 -44 -16 6 -30 2 -30 -9 0 -10 -16 -25
-35 -32 -19 -6 -48 -18 -65 -25 -23 -10 -22 -3 5 27 46 51 44 80 -5 106 -22
12 -40 37 -39 56 0 27 9 24 45 -16 25 -29 60 -48 82 -43z m751 -68 c-34 -41
-79 -36 -79 8 0 52 20 65 64 41 31 -17 34 -27 15 -49z m141 30 c0 -22 -14 -46
-32 -53 -41 -15 -73 34 -44 68 32 40 76 31 76 -15z m-545 -13 c11 -33 -74 -75
-100 -49 -33 33 0 87 48 79 24 -3 47 -17 52 -30z m121 -11 c5 -24 -6 -35 -35
-35 -28 0 -41 13 -41 41 0 52 66 46 76 -6z m144 14 c0 -32 -53 -63 -73 -42 -7
6 -7 25 0 42 15 40 73 40 73 0z m-737 -154 c21 -40 20 -42 -7 -20 -25 21 -35
20 -56 -5 -34 -41 -76 -38 -73 5 6 70 101 84 136 20z m365 33 c41 -16 41 -45
0 -91 -28 -30 -37 -31 -60 -8 -34 34 -35 56 -4 87 28 28 24 27 64 12z m430
-61 c-18 -21 -30 -22 -51 -5 -21 18 -22 30 -5 51 18 21 30 22 51 5 21 -18 22
-30 5 -51z m153 52 c7 -11 1 -34 -12 -50 -30 -36 -83 -2 -66 42 13 34 59 38
78 8z m129 -18 c0 -21 -10 -45 -22 -52 -30 -19 -66 22 -51 60 17 44 73 39 73
-8z m-545 -16 c11 -33 -52 -56 -79 -29 -11 11 -14 31 -6 43 17 29 74 19 85
-14z m133 19 c17 -29 -21 -66 -55 -53 -35 14 -42 33 -20 56 19 18 63 16 75 -3z
m-446 -169 c54 -62 47 -104 -10 -57 -36 30 -136 20 -123 -12 6 -16 -6 -26 -28
-26 -36 0 -36 3 -6 65 56 114 88 120 167 30z m236 18 c17 -21 15 -34 -7 -53
-36 -29 -91 -13 -91 26 0 57 59 73 98 27z m135 -4 c18 -48 -24 -81 -62 -49
-24 19 -26 32 -9 53 30 36 56 34 71 -4z m145 4 c17 -21 16 -33 -5 -51 -32 -26
-93 -9 -93 27 0 54 60 69 98 24z m-804 -129 c27 -17 12 -104 -18 -104 -10 0
-12 -10 -4 -23 9 -15 5 -18 -9 -9 -13 8 -18 23 -12 33 6 11 3 19 -7 19 -10 0
-14 23 -9 50 10 53 20 59 59 34z m453 -34 c17 -45 -7 -90 -48 -90 -38 0 -70
65 -49 100 19 31 84 24 97 -10z"/>
<path d="M943 4805 c-29 -57 -46 -181 -26 -193 23 -15 36 17 54 135 14 96 4
118 -28 58z"/>
<path d="M3660 5247 c1 -92 31 -151 57 -111 22 35 -1 169 -32 179 -17 6 -25
-16 -25 -68z"/>
<path d="M4200 5189 c0 -62 60 -177 81 -156 15 15 11 47 -12 104 -33 83 -69
110 -69 52z"/>
<path d="M4636 5978 c-4 -13 -41 -26 -82 -29 -42 -4 -71 -1 -67 7 5 8 -31 15
-79 16 -134 4 -121 -87 17 -120 30 -7 55 -25 55 -41 0 -19 16 -25 50 -19 35 6
50 0 50 -22 0 -17 18 -46 40 -65 22 -18 40 -53 40 -77 0 -71 100 -101 238 -69
61 14 139 29 172 34 33 4 105 17 160 27 55 11 136 25 180 31 106 15 134 21
171 37 16 7 66 15 110 18 43 3 90 12 103 20 14 9 65 16 115 17 l91 2 0 128 0
128 -653 -2 c-494 0 -648 -6 -630 -24 32 -32 29 -55 -7 -55 -17 0 -30 18 -30
40 0 43 -32 55 -44 18z"/>
<path d="M5712 5651 c8 -20 1 -31 -19 -31 -17 0 -36 -9 -43 -21 -9 -13 5 -16
38 -8 40 10 52 6 52 -18 0 -25 -18 -30 -80 -25 -45 4 -86 -1 -92 -11 -6 -9
-35 -18 -64 -18 -49 -2 -50 -4 -14 -21 42 -20 4 -15 -105 14 -31 9 -45 4 -45
-15 0 -22 -28 -27 -118 -23 -130 5 -301 -55 -232 -81 30 -12 31 -18 7 -47 -19
-23 -19 -29 -2 -19 15 10 25 4 25 -13 0 -16 16 -41 35 -57 32 -25 32 -24 7 8
-15 20 -23 41 -17 47 6 5 27 -26 48 -69 20 -44 54 -85 75 -90 23 -7 33 -22 26
-40 -6 -16 2 -35 19 -41 17 -7 26 -23 22 -37 -5 -14 13 -45 39 -70 28 -26 37
-45 22 -45 -19 -1 -18 -6 3 -19 20 -13 35 -11 45 5 9 13 16 15 16 3 0 -11 -14
-40 -31 -65 -52 -74 73 -221 162 -191 11 4 23 -21 25 -56 5 -61 4 -63 -32 -31
-106 96 -141 33 -69 -123 35 -75 415 -498 494 -550 50 -33 75 -90 26 -60 -16
9 -15 2 3 -20 45 -55 61 -4 62 193 0 174 -1 177 -70 249 -76 77 -69 139 10 89
22 -13 44 -24 50 -24 6 0 10 297 9 660 l-1 660 -59 -4 c-32 -2 -59 -13 -59
-23 0 -10 -18 -13 -40 -7 -25 6 -35 2 -27 -11 9 -14 1 -17 -21 -8 -20 7 -39
13 -44 13 -4 0 -8 13 -8 29 0 16 -9 34 -20 41 -11 7 -14 -1 -8 -19z m-330
-836 c1 -20 3 -20 11 0 6 14 19 20 29 14 35 -22 18 -49 -31 -49 -50 0 -80 25
-57 47 21 21 46 15 48 -12z m273 -260 c51 -25 63 -108 15 -108 -16 0 -30 6
-30 14 0 8 -22 20 -48 27 -35 8 -47 25 -45 59 3 50 18 51 108 8z"/>
<path d="M3160 5263 c0 -614 -115 -1370 -274 -1793 l-37 -100 -125 -22 c-68
-12 -125 -17 -126 -10 -1 7 0 44 1 83 2 41 -9 82 -24 95 -23 19 -26 -4 -19
-147 10 -190 -26 -326 -102 -379 -48 -34 -174 -41 -174 -10 0 11 24 20 53 20
105 0 178 130 119 211 -28 38 -29 38 -75 -4 -83 -76 -130 -77 -201 -6 -68 67
-116 49 -116 -45 0 -20 -13 -36 -28 -36 -30 0 -52 42 -52 102 0 35 -10 37
-112 25 l-112 -13 14 113 c16 120 0 140 -58 75 -33 -36 -33 -42 7 -119 54
-107 52 -120 -12 -61 l-52 48 14 -490 c11 -408 19 -495 45 -520 28 -27 30 -26
18 10 -18 51 0 29 97 -116 74 -111 349 -314 425 -314 19 0 27 -46 28 -175 3
-268 -1 -261 209 -316 418 -108 429 -117 550 -438 l30 -79 77 182 c42 101 98
203 124 228 36 34 48 66 48 131 0 99 -3 99 -246 69 -85 -10 -121 -7 -137 12
-12 14 -43 26 -69 26 -27 0 -48 10 -48 21 0 12 -8 16 -19 10 -10 -6 -24 -2
-31 9 -7 11 -21 16 -30 10 -10 -6 -25 1 -34 15 -9 14 -70 52 -136 84 -141 68
-173 90 -160 110 5 8 110 -37 234 -101 124 -64 270 -131 323 -150 l97 -33 183
92 c285 142 778 430 833 487 l50 51 -65 -12 c-89 -16 -82 7 33 104 117 98 136
149 410 1113 3 11 13 36 22 56 18 44 -1 67 -75 85 -63 15 -66 8 -25 -71 29
-56 27 -62 -45 -159 -77 -105 -114 -95 -57 15 42 82 -135 303 -243 304 -74 0
-75 -2 -36 -110 79 -218 -8 -510 -151 -510 l-56 0 50 50 c28 28 58 46 67 40
16 -9 41 33 41 69 0 9 -19 40 -42 69 l-42 53 -69 -61 c-87 -76 -112 -75 -175
5 l-50 64 -32 -75 c-60 -145 -107 12 -59 197 16 61 29 116 29 122 0 5 -31 -9
-70 -33 -88 -54 -90 -24 -5 73 36 41 55 69 43 62 -14 -9 -22 10 -24 51 -14
374 -284 1894 -336 1894 -4 0 -8 -107 -8 -237z m-1048 -2183 c15 0 28 -13 28
-29 0 -16 16 -38 35 -49 29 -17 24 -21 -29 -21 -44 -1 -74 13 -95 43 -40 57
-40 84 1 68 17 -7 44 -12 60 -12z m1558 -91 c11 -13 34 -29 50 -35 17 -6 -1
-11 -40 -12 -52 -1 -79 12 -107 49 l-36 51 56 -15 c32 -7 66 -25 77 -38z
m-650 -809 c0 -11 -35 -20 -79 -20 -43 0 -84 9 -91 20 -8 12 23 20 79 20 50 0
91 -9 91 -20z m200 0 c0 -11 -13 -20 -28 -20 -16 0 -43 -5 -60 -12 -18 -7 -32
-3 -32 8 0 20 38 36 95 42 14 1 25 -7 25 -18z"/>
<path d="M0 5273 c0 -88 507 -222 588 -155 53 44 14 79 -105 93 -62 8 -187 35
-278 62 -204 58 -205 58 -205 0z"/>
<path d="M759 5182 c-148 -29 -172 -102 -34 -102 146 0 253 44 255 105 0 18
-122 16 -221 -3z"/>
<path d="M0 4296 l0 -817 120 11 c75 7 120 3 120 -10 0 -11 14 -20 30 -20 20
0 30 21 31 65 1 171 20 914 28 1146 10 253 -10 409 -50 409 -10 0 -19 -22 -19
-50 0 -27 -9 -50 -20 -50 -11 0 -20 14 -20 30 0 17 -17 30 -39 30 -21 0 -53
15 -72 34 -109 109 -109 111 -109 -778z"/>
<path d="M455 5024 c-44 -5 -55 -17 -57 -60 -32 -809 -8 -1504 52 -1504 35 0
78 147 62 210 -10 40 -2 46 68 58 94 15 102 49 23 94 -53 30 -72 95 -38 130
16 16 -5 70 -24 59 -8 -5 -14 4 -14 20 0 16 5 29 11 29 17 0 15 254 -2 271 -8
7 -1 34 16 59 16 25 31 87 34 138 2 50 9 92 15 92 6 0 9 37 7 81 -3 58 3 79
21 72 14 -5 35 21 51 64 36 96 39 143 9 143 -13 0 -35 13 -48 29 -23 27 -64
30 -186 15z"/>
<path d="M3570 4690 c6 -66 11 -235 12 -375 1 -179 8 -255 25 -255 17 -1 17
-5 1 -15 -27 -18 -59 -325 -35 -324 9 0 34 13 56 30 21 16 48 29 60 29 11 0
-17 -23 -64 -51 -65 -39 -85 -64 -85 -103 0 -39 6 -46 26 -29 14 12 65 27 113
35 l86 14 -13 172 c-25 329 -33 362 -80 364 -42 2 -42 2 -1 15 47 15 16 239
-70 493 l-40 120 9 -120z"/>
<path d="M5420 4321 c0 -12 8 -21 18 -21 17 0 49 -102 42 -132 -2 -8 9 -21 23
-31 22 -14 22 -20 0 -35 -23 -14 -23 -19 0 -28 19 -8 20 -11 2 -12 -28 -2 -35
-94 -8 -110 10 -6 13 -33 8 -61 -5 -29 3 -62 21 -80 33 -33 56 -40 51 -16 -2
8 3 56 11 105 9 53 6 113 -6 146 -17 44 -16 58 8 67 16 6 25 19 19 29 -7 10
-22 13 -33 5 -12 -7 -17 -4 -10 7 7 11 -10 50 -37 87 -54 74 -109 114 -109 80z"/>
<path d="M2209 4240 c-259 -35 -250 -29 -290 -225 -19 -95 -41 -182 -48 -194
-32 -50 -32 -120 -1 -108 16 6 24 20 17 32 -18 30 330 -4 601 -58 54 -11 57
-8 48 51 -5 34 -1 62 10 62 10 0 13 23 6 50 -7 29 -4 50 8 50 11 0 20 20 20
43 0 24 5 38 12 32 7 -7 1 -77 -12 -156 -16 -95 -18 -149 -4 -163 30 -30 50
162 34 325 l-14 139 -87 0 c-48 0 -92 9 -99 20 -8 12 30 20 99 20 103 0 152
34 96 66 -34 20 -284 29 -396 14z m201 -400 c8 -13 -36 -20 -116 -20 -71 0
-159 -6 -196 -13 -38 -7 -62 -6 -54 2 32 35 347 62 366 31z"/>
<path d="M3820 4152 c0 -16 14 -43 30 -59 17 -17 30 -44 30 -60 0 -17 9 -36
20 -43 11 -7 19 -32 18 -56 -2 -41 -3 -40 -16 6 l-15 50 -10 -54 c-7 -31 -2
-58 11 -62 15 -5 13 -18 -5 -41 -25 -30 -20 -33 53 -33 l81 0 0 93 c0 77 9
100 55 137 77 62 54 104 -66 120 -53 7 -116 16 -141 21 -30 7 -45 0 -45 -19z"/>
<path d="M5640 4062 c0 -11 8 -25 18 -31 11 -6 16 -43 13 -80 -4 -43 4 -79 22
-93 23 -20 24 -28 3 -41 -42 -28 16 -52 100 -43 130 14 127 66 -11 193 -104
96 -145 123 -145 95z"/>
<path d="M1863 3541 c-78 -67 -82 -147 -8 -157 24 -4 57 -24 72 -46 26 -37 29
-33 41 45 8 47 32 115 55 151 l40 66 -66 -1 c-44 0 -90 -20 -134 -58z"/>
<path d="M2041 3518 c-73 -161 -59 -218 55 -218 92 0 97 3 121 70 32 88 113
99 143 20 37 -97 93 -54 132 99 14 57 -54 83 -277 104 l-134 13 -40 -88z"/>
<path d="M3685 3497 c-110 -25 -157 -177 -54 -177 46 0 188 124 189 165 0 39
-11 39 -135 12z"/>
<path d="M3955 3488 c-25 -25 -17 -97 16 -144 43 -60 69 -55 69 14 0 62 -61
154 -85 130z"/>
<path d="M2489 3410 c-15 -76 -5 -102 30 -81 26 17 28 124 2 140 -10 7 -25
-20 -32 -59z"/>
<path d="M125 3404 l-125 -6 0 -268 0 -268 122 8 c118 7 278 84 278 132 0 9
30 47 68 84 37 38 78 87 90 111 13 24 40 43 59 43 43 0 90 79 80 132 -8 39
-203 50 -572 32z"/>
<path d="M4674 3287 c-8 -7 -5 -24 7 -38 14 -17 11 -28 -10 -36 -45 -17 -38
-53 10 -53 26 0 36 -9 27 -23 -8 -13 -3 -19 14 -13 37 12 44 57 19 123 -20 52
-42 65 -67 40z"/>
<path d="M4823 3096 c-53 -195 -197 -498 -290 -607 -36 -44 -71 -97 -77 -119
-6 -22 -31 -89 -54 -148 l-44 -108 111 12 c189 19 567 154 580 206 45 181 71
955 30 884 -11 -19 -33 -29 -50 -23 -19 7 -29 -1 -29 -26 -1 -188 -107 -737
-139 -718 -8 5 -2 75 12 155 28 163 36 656 10 656 -9 0 -36 -74 -60 -164z"/>
<path d="M969 3078 c-14 -45 4 -171 27 -185 8 -5 15 44 16 109 2 118 -18 154
-43 76z"/>
<path d="M4614 3067 c9 -24 6 -29 -14 -17 -18 11 -21 9 -10 -10 13 -20 22 -18
42 9 15 21 39 31 57 24 17 -6 31 -3 31 8 0 10 -27 19 -59 19 -48 0 -57 -7 -47
-33z"/>
<path d="M5199 3029 c-14 -17 -37 -26 -52 -21 -31 12 -37 -39 -7 -58 11 -7 20
-1 20 13 0 16 8 14 25 -7 14 -17 52 -38 85 -45 97 -23 116 -48 80 -104 -17
-26 -24 -48 -15 -49 40 -3 90 -16 97 -24 19 -18 -33 -114 -61 -114 -19 0 -25
-12 -18 -31 9 -22 28 -28 66 -19 37 8 63 2 81 -20 23 -28 29 -28 62 2 44 39
104 22 94 -27 -5 -24 -28 -36 -76 -38 -219 -11 -229 -17 -171 -99 31 -44 20
-74 -33 -94 -22 -7 -42 0 -52 19 -16 28 -19 28 -31 -2 -7 -18 -5 -28 5 -23 9
6 32 -6 51 -27 29 -32 42 -34 73 -15 30 19 44 17 70 -9 46 -46 17 -79 -63 -73
-91 6 -99 -8 -38 -73 57 -62 56 -91 -6 -122 -60 -30 -27 -75 42 -58 45 11 53
7 53 -29 0 -23 -11 -43 -25 -45 -14 -2 -34 -5 -45 -8 -11 -2 -33 -5 -48 -7
-21 -1 -15 -17 19 -53 48 -51 38 -119 -17 -119 -43 0 -49 -31 -13 -71 31 -34
33 -44 9 -59 -18 -11 -36 -6 -51 14 -17 24 -27 26 -38 8 -8 -14 -10 -30 -3
-37 7 -6 13 1 14 17 1 15 8 6 16 -22 8 -27 25 -51 38 -52 13 -2 38 -4 54 -5
48 -5 35 -75 -19 -99 -47 -21 -50 -18 -62 47 -19 96 -129 86 -129 -12 0 -42
71 -107 99 -90 11 7 21 4 21 -8 0 -33 86 -60 115 -36 35 28 99 1 69 -29 -47
-47 -220 -40 -246 9 -52 98 -149 78 -133 -27 5 -37 0 -56 -13 -52 -21 7 -24
19 -30 99 -4 68 -97 44 -114 -30 l-16 -65 -11 70 c-10 59 -4 74 34 96 72 40
54 136 -25 135 -32 -1 -41 -17 -46 -76 -7 -86 -44 -82 -44 5 0 31 -10 60 -22
64 -42 14 -52 142 -14 180 44 44 46 103 6 136 -47 39 -96 -12 -84 -89 6 -39
-2 -74 -22 -97 -27 -30 -28 -43 -7 -77 16 -25 24 -95 21 -184 -2 -79 1 -170 8
-204 7 -33 6 -106 -3 -163 -9 -56 -9 -116 0 -133 10 -16 19 -67 20 -113 3 -58
16 -91 45 -111 49 -35 141 -40 121 -7 -12 19 21 57 51 58 6 0 10 -29 10 -65
l0 -65 145 -17 c143 -17 145 -18 145 -75 0 -44 12 -64 48 -77 26 -10 54 -28
61 -39 8 -14 29 -13 63 3 61 27 97 -10 67 -68 -40 -73 31 -113 176 -100 70 7
84 -17 35 -57 -24 -20 -36 -20 -59 0 -24 19 -36 18 -62 -8 -17 -18 -40 -32
-50 -32 -11 0 -19 -9 -19 -20 0 -12 93 -20 240 -20 200 0 240 5 240 30 0 17
-9 30 -20 30 -11 0 -20 18 -20 40 0 22 9 40 20 40 11 0 20 27 20 60 0 33 -9
60 -20 60 -11 0 -20 -9 -20 -20 0 -33 -75 -23 -88 12 -24 63 52 96 104 44 19
-19 24 -8 24 48 0 55 -8 71 -34 69 -52 -4 -55 65 -5 118 47 51 42 101 -14 123
-21 8 -45 -2 -67 -29 -32 -40 -33 -40 -57 -2 -19 31 -32 34 -65 16 -22 -12
-51 -17 -64 -12 -18 7 -18 10 1 11 41 3 29 34 -22 57 -59 27 -60 83 -1 109 37
18 42 29 27 69 -22 59 -6 60 40 4 22 -28 47 -39 68 -31 48 19 41 106 -11 143
-52 36 -84 41 -65 9 8 -12 -10 -6 -39 13 -71 46 -60 100 18 95 32 -3 70 5 84
18 15 12 63 24 107 26 44 3 85 10 91 15 17 17 -39 95 -67 95 -14 0 -25 10 -25
22 0 14 19 18 50 10 l50 -13 0 209 c0 149 -7 211 -25 218 -20 7 -20 17 0 51
37 63 33 263 -5 263 -16 0 -30 14 -30 31 0 16 14 35 30 42 39 15 43 239 5 253
-20 7 -20 14 0 36 39 41 29 62 -17 37 -23 -12 -46 -17 -52 -11 -6 6 12 21 41
34 29 14 53 36 53 51 0 32 -11 33 -59 7 -56 -29 -100 30 -55 75 30 30 36 30
73 -4 40 -37 41 -36 41 26 0 35 -9 63 -20 63 -11 0 -20 17 -20 39 0 21 9 44
20 51 11 7 20 34 20 61 0 27 -9 49 -20 49 -11 0 -20 -9 -20 -20 0 -11 -18 -20
-40 -20 -27 0 -40 13 -40 41 0 50 50 72 90 39 26 -21 30 -15 30 38 0 34 -9 62
-20 62 -11 0 -20 14 -20 30 0 17 -18 30 -40 30 -22 0 -40 -13 -40 -30 0 -34
-51 -41 -70 -10 -19 31 -73 24 -100 -14 -24 -32 -27 -32 -59 0 -42 42 -50 42
-82 -1 -25 -33 -29 -32 -71 13 l-45 47 -38 -52 c-35 -48 -114 -79 -86 -34 29
47 -93 94 -130 50z m273 -220 c-52 -52 -108 0 -59 54 30 34 38 35 64 9 25 -26
25 -33 -5 -63z m194 78 c19 -19 -24 -87 -55 -87 -30 0 -57 54 -40 82 13 21 76
24 95 5z m134 -27 c0 -47 -70 -56 -86 -12 -14 35 2 52 49 52 24 0 37 -15 37
-40z m-73 -149 c14 -36 -37 -79 -77 -64 -36 14 -40 66 -5 80 45 18 71 13 82
-16z m149 -6 c-4 -19 -20 -35 -36 -35 -16 0 -32 16 -36 35 -5 25 6 35 36 35
30 0 41 -10 36 -35z m-300 -20 c-4 -19 -24 -35 -46 -35 -22 0 -42 16 -46 35
-5 26 6 35 46 35 40 0 51 -9 46 -35z m233 -138 c11 -30 -17 -66 -53 -67 -24 0
-40 41 -28 71 15 39 65 37 81 -4z m152 -298 c21 -26 20 -37 -6 -62 -36 -37
-75 -21 -75 31 0 65 40 81 81 31z m-311 -40 c0 -21 -16 -41 -35 -45 -44 -9
-71 54 -33 78 40 25 68 11 68 -33z m160 1 c0 -60 -78 -54 -87 7 -5 38 2 45 40
40 31 -5 47 -20 47 -47z m-74 -153 c7 -38 -38 -60 -76 -37 -36 22 -8 84 35 76
19 -3 37 -21 41 -39z m154 -6 c0 -44 -28 -58 -68 -33 -38 24 -11 87 33 78 19
-4 35 -24 35 -45z m-314 -6 c-8 -42 -71 -58 -103 -26 -17 17 -15 27 7 42 50
31 104 23 96 -16z m217 -174 c-14 -37 -73 -42 -73 -5 0 14 11 37 24 50 30 30
66 -2 49 -45z m178 47 c8 -12 1 -34 -14 -49 -34 -35 -88 -5 -71 39 15 37 65
43 85 10z m-326 -10 c19 -19 -7 -68 -36 -68 -33 0 -55 34 -39 60 14 22 57 27
75 8z m66 -170 c21 -33 -26 -71 -53 -44 -23 23 -9 66 22 66 10 0 24 -10 31
-22z m160 0 c21 -33 -26 -71 -53 -44 -23 23 -9 66 22 66 10 0 24 -10 31 -22z
m-302 -17 c6 -10 2 -24 -10 -31 -29 -19 -84 5 -69 30 16 25 64 26 79 1z m397
-126 c14 -40 -24 -95 -56 -82 -31 12 -41 70 -17 94 22 21 63 15 73 -12z m-486
-56 c0 -43 -15 -48 -59 -20 -23 15 -24 23 -2 49 31 38 61 24 61 -29z m247
-127 c6 -16 -3 -34 -20 -40 -51 -20 -67 -14 -67 28 0 47 70 56 87 12z m86
-152 c52 0 20 -70 -35 -76 -38 -4 -51 3 -52 30 -1 45 39 100 50 68 4 -12 21
-22 37 -22z m-178 4 c20 -13 20 -24 -1 -52 -23 -32 -29 -32 -52 -5 -41 50 -2
91 53 57z m-603 -214 c-1 -58 -6 -65 -29 -42 -21 21 -22 37 -4 70 30 57 34 54
33 -28z m381 40 c16 -43 -27 -88 -74 -76 -45 12 -45 69 1 90 47 21 60 18 73
-14z m-77 -156 c33 -39 0 -72 -59 -60 -50 9 -51 12 -21 48 39 45 52 47 80 12z
m316 3 c8 -13 -2 -35 -23 -50 -38 -28 -68 -8 -69 48 0 31 73 33 92 2z m-172
-28 c0 -16 -14 -36 -31 -42 -38 -15 -79 21 -60 51 20 33 91 26 91 -9z m-204
-187 c-3 -17 -27 -41 -51 -52 -25 -11 -41 -30 -36 -43 5 -16 -12 -24 -49 -23
l-58 2 49 39 c27 21 44 47 37 57 -6 11 -1 32 11 47 30 36 105 15 97 -27z m140
11 c5 -22 -7 -33 -35 -33 -22 0 -41 12 -41 27 0 61 65 67 76 6z m456 -258 c-2
-77 -79 -107 -101 -39 -6 20 -24 37 -39 37 -16 0 -24 -11 -19 -24 15 -38 -57
-54 -91 -20 -20 21 -23 31 -6 31 13 0 24 14 24 31 0 25 18 28 100 17 69 -9
100 -6 100 9 0 13 8 23 17 23 9 0 16 -29 15 -65z m-452 -25 c0 -31 -61 -71
-104 -68 -17 1 -18 4 -3 11 12 5 18 26 13 46 -6 25 3 40 27 46 47 10 67 0 67
-35z m219 -159 c28 -33 12 -71 -29 -71 -36 0 -56 34 -42 71 14 37 41 37 71 0z
m171 -31 c0 -43 -78 -37 -87 7 -5 28 4 35 40 30 26 -4 47 -20 47 -37z m57
-149 c14 -37 -23 -63 -51 -35 -21 21 -6 64 23 64 9 0 22 -13 28 -29z"/>
<path d="M4556 2973 c-15 -15 -26 -53 -25 -85 1 -32 -10 -70 -26 -86 -16 -16
-24 -49 -20 -75 5 -25 3 -42 -5 -37 -7 4 -13 -17 -13 -48 l0 -56 46 41 c49 42
67 127 22 101 -14 -8 1 14 34 49 32 35 50 63 40 64 -11 0 -2 13 19 29 21 16
32 41 25 59 -6 17 -3 31 8 31 10 0 19 9 19 20 0 30 -93 24 -124 -7z"/>
<path d="M5130 2800 c35 -333 35 -441 1 -530 -32 -84 -79 -145 -66 -87 3 14
-14 29 -37 33 -37 5 -44 -7 -55 -99 -15 -133 -22 -132 113 -14 212 186 257
330 171 541 -24 58 -44 137 -45 174 -1 38 -14 73 -29 78 -22 7 -22 0 -3 -35
35 -66 8 -73 -29 -8 -33 57 -33 56 -21 -53z"/>
<path d="M1040 2695 c0 -310 -4 -303 181 -338 l157 -30 6 262 c3 143 4 264 2
268 -2 4 -81 12 -175 18 l-171 11 0 -191z"/>
<path d="M1437 2595 c7 -301 1 -287 128 -300 105 -11 123 13 57 73 -75 68
-105 298 -51 400 35 69 16 91 -81 92 l-60 0 7 -265z"/>
<path d="M5251 2715 c17 -56 48 -92 52 -59 1 13 3 35 5 49 3 26 -25 54 -54 55
-9 0 -11 -20 -3 -45z"/>
<path d="M954 2658 c-7 -24 2 -85 19 -136 37 -110 56 -135 39 -52 -6 33 -17
96 -24 140 -14 97 -20 104 -34 48z"/>
<path d="M1060 2283 c0 -91 58 -119 98 -48 16 28 25 30 45 10 30 -30 57 -32
57 -5 0 11 -13 20 -30 20 -16 0 -30 9 -30 20 0 11 -15 20 -33 20 -19 0 -50 15
-70 33 -35 32 -37 29 -37 -50z"/>
<path d="M1299 2249 c-14 -17 -5 -33 31 -57 49 -33 50 -32 50 24 0 61 -43 78
-81 33z"/>
<path d="M1460 2190 c0 -44 9 -50 70 -50 l70 0 -44 50 c-24 28 -55 50 -70 50
-14 0 -26 -22 -26 -50z"/>
<path d="M4275 2162 c-30 -30 -64 -83 -76 -117 -32 -91 -312 -304 -360 -274
-22 13 -51 -30 -96 -141 -23 -55 -41 -84 -42 -65 -1 41 -41 48 -41 7 0 -168
585 307 677 550 31 82 0 101 -62 40z"/>
<path d="M4810 2180 c-18 -29 7 -60 49 -60 37 0 68 46 46 68 -19 19 -81 14
-95 -8z"/>
<path d="M1072 2065 c23 -335 51 -654 59 -667 15 -24 330 -204 340 -194 5 5
-9 153 -31 328 -43 348 -51 548 -20 548 24 0 32 -38 59 -310 12 -121 42 -314
67 -430 l44 -209 88 -49 88 -49 -14 169 c-8 92 -30 321 -49 507 l-34 339 -71
15 c-40 8 -94 19 -120 24 -26 6 -127 28 -224 51 -96 23 -179 42 -183 42 -4 0
-4 -52 1 -115z"/>
<path d="M4574 2086 c-21 -22 -34 -25 -34 -10 0 36 -151 30 -189 -8 -35 -35
-117 -190 -140 -264 -23 -74 76 -13 209 129 61 64 120 114 132 111 12 -2 38
14 58 36 44 49 12 54 -36 6z"/>
<path d="M4752 2069 c-18 -17 -32 -42 -32 -55 1 -87 106 -98 116 -12 8 71 -41
110 -84 67z"/>
<path d="M4905 2085 c-29 -10 -34 -97 -6 -115 11 -6 25 11 32 38 16 62 7 89
-26 77z"/>
<path d="M5188 2071 c-20 -50 1 -101 44 -107 54 -8 89 36 75 92 -13 51 -101
62 -119 15z"/>
<path d="M5055 2045 c-40 -43 -17 -92 37 -82 25 5 38 24 38 56 0 61 -34 72
-75 26z"/>
<path d="M1715 2028 c-17 -16 23 -121 57 -149 34 -29 38 3 4 37 -13 13 -18 29
-11 36 7 6 26 -16 44 -50 37 -71 51 -78 51 -24 0 67 -112 183 -145 150z"/>
<path d="M4551 1988 c-21 -15 -31 -28 -22 -28 10 0 -7 -21 -36 -46 -34 -29
-54 -67 -55 -105 0 -32 -6 -48 -11 -34 -6 14 -18 25 -28 25 -10 0 -13 -12 -7
-27 7 -19 -8 -25 -56 -22 -102 7 -180 -14 -190 -50 -11 -42 -134 -110 -172
-95 -15 5 -40 2 -56 -8 -23 -14 -22 -17 6 -18 41 0 68 -76 37 -107 -30 -30
-93 10 -85 55 3 18 -8 32 -24 32 -20 0 -26 -11 -18 -33 18 -46 -48 -92 -96
-66 -30 16 -80 -10 -55 -29 76 -57 107 -68 141 -50 46 25 76 8 76 -43 0 -30
-14 -39 -60 -39 -71 0 -73 -8 -21 -64 33 -35 45 -38 70 -17 37 31 91 14 91
-28 0 -50 -74 -78 -98 -36 -18 30 -21 30 -21 3 -1 -50 64 -98 115 -85 92 24
133 -56 51 -99 -33 -18 -44 -33 -30 -42 12 -8 41 -4 63 8 45 24 80 12 80 -29
0 -52 160 -113 175 -66 2 9 18 41 34 73 16 31 23 63 16 71 -8 7 2 7 21 0 44
-17 44 -69 0 -69 -26 0 -29 -5 -10 -24 13 -13 24 -45 24 -70 0 -25 9 -46 20
-46 11 0 25 0 30 0 9 0 39 -25 134 -113 55 -51 60 16 47 605 -6 296 -11 580
-10 631 1 106 -15 126 -70 85z m-425 -447 c17 -66 -31 -113 -72 -72 -43 43
-43 64 1 89 50 29 59 27 71 -17z m-74 -170 c25 -25 24 -32 -13 -51 -55 -30
-112 10 -77 53 29 35 54 34 90 -2z m83 -163 c9 -67 -23 -96 -72 -65 -52 32
-55 68 -8 95 47 27 74 17 80 -30z"/>
<path d="M4951 1962 c-7 -12 -4 -22 9 -22 15 0 15 -12 -1 -42 -28 -51 18 -111
69 -91 44 16 41 111 -3 127 -19 7 -41 21 -47 32 -8 11 -19 9 -27 -4z"/>
<path d="M1891 1738 c9 -152 4 -237 -18 -318 -16 -60 -28 -112 -26 -114 8 -8
131 185 137 214 3 17 22 35 42 40 20 6 51 33 68 62 36 59 30 68 -129 235 l-85
90 11 -209z"/>
<path d="M5119 1909 c-33 -41 -2 -99 53 -99 29 0 38 14 38 60 0 69 -49 90 -91
39z"/>
<path d="M5261 1911 c-18 -21 -18 -39 -2 -70 30 -55 58 -52 73 8 20 81 -24
119 -71 62z"/>
<path d="M4681 1883 c-14 -27 -12 -48 7 -73 35 -48 72 -22 72 51 0 68 -47 81
-79 22z"/>
<path d="M4808 1891 c-18 -46 0 -100 36 -107 38 -7 84 65 68 108 -14 37 -90
36 -104 -1z"/>
<path d="M5188 1753 c-22 -58 1 -103 52 -103 42 0 50 9 50 60 0 67 -80 100
-102 43z"/>
<path d="M4884 1705 c9 -85 96 -91 96 -6 0 52 -7 61 -51 61 -45 0 -51 -8 -45
-55z"/>
<path d="M5033 1731 c-26 -68 44 -133 87 -81 13 16 20 44 16 64 -8 46 -87 59
-103 17z"/>
<path d="M4972 1590 c-41 -42 -17 -114 36 -106 28 4 44 23 48 58 7 63 -41 90
-84 48z"/>
<path d="M5134 1597 c-48 -27 -42 -92 9 -108 30 -10 52 -3 69 20 45 63 -11
126 -78 88z"/>
<path d="M3504 1576 c-32 -32 -29 -77 7 -125 27 -36 29 -32 29 55 0 103 -1
105 -36 70z"/>
<path d="M4825 1587 c-52 -21 -13 -127 47 -127 31 0 52 56 37 103 -12 37 -35
43 -84 24z"/>
<path d="M2032 1420 c-49 -57 -232 -354 -232 -377 0 -13 -8 -23 -18 -23 -71 0
-20 -87 222 -382 l263 -320 126 125 c111 110 133 146 185 296 150 430 164 461
215 461 26 0 47 -10 47 -22 0 -12 -13 -17 -30 -11 -30 12 -52 -17 -89 -115
-19 -48 -11 -55 153 -152 213 -125 214 -123 99 114 -110 230 -77 207 -469 318
-334 95 -387 113 -299 101 31 -4 61 1 67 11 20 32 -212 9 -240 -24z"/>
<path d="M3340 1378 c0 -57 2 -58 85 -48 l85 11 -86 -29 c-134 -44 -157 -74
-292 -380 -67 -151 -43 -152 125 -8 151 130 161 157 88 241 -17 19 -22 35 -11
35 38 0 60 -47 131 -284 67 -221 78 -242 197 -375 l126 -141 52 145 c28 80 63
163 76 185 40 65 7 -56 -58 -215 l-56 -135 87 -141 c48 -77 93 -163 99 -190
l13 -49 699 0 c762 0 733 -5 661 114 -44 73 -99 103 -411 232 -121 50 -390
168 -598 263 -208 94 -389 171 -401 171 -29 0 -130 169 -222 370 -78 171 -93
189 -165 190 -26 0 -42 7 -36 16 5 10 -35 31 -89 49 l-99 31 0 -58z m390 -630
c-83 -74 -117 -61 -61 23 21 33 50 49 86 48 l55 -1 -80 -70z"/>
<path d="M5045 1416 c-30 -38 6 -121 50 -112 46 9 49 123 3 132 -17 3 -41 -6
-53 -20z"/>
<path d="M5800 1090 c-32 -39 -11 -90 37 -90 58 0 94 52 63 90 -32 38 -68 38
-100 0z"/>
<path d="M5881 951 c-18 -21 -18 -39 -2 -70 28 -52 73 -53 100 -2 43 79 -41
141 -98 72z"/>
<path d="M3365 897 c-67 -42 -85 -77 -40 -77 14 0 59 -28 100 -61 41 -34 75
-56 75 -49 0 18 -62 230 -66 228 -2 -1 -33 -19 -69 -41z"/>
<path d="M1598 848 c-41 -61 -84 -86 -295 -170 -937 -372 -1355 -573 -1285
-617 15 -9 21 -27 13 -39 -10 -16 277 -22 1058 -22 l1071 0 0 65 c0 36 23 105
51 154 l51 88 -98 102 c-54 55 -172 193 -262 306 -187 234 -224 251 -304 133z
m-5 -217 c23 -16 49 -23 58 -15 8 8 10 4 3 -8 -13 -23 84 -122 156 -159 22
-11 40 -38 40 -60 0 -21 11 -37 25 -34 14 3 25 -6 26 -20 0 -14 41 -55 90 -91
97 -71 122 -136 44 -113 -122 35 -225 104 -324 215 -185 208 -258 382 -118
285z"/>
<path d="M2615 775 c-68 -172 -64 -177 58 -84 53 41 117 84 142 95 50 23 58
45 20 60 -14 6 -56 24 -95 40 l-70 30 -55 -141z"/>
<path d="M5803 782 c-39 -25 -20 -91 29 -98 51 -7 93 39 76 83 -13 36 -62 43
-105 15z"/>
<path d="M2800 693 c-112 -83 -332 -317 -350 -372 -7 -23 -20 -37 -29 -31 -9
5 -22 -4 -29 -21 -7 -20 -3 -26 11 -17 14 9 18 5 9 -9 -8 -13 -25 -23 -38 -23
-26 0 -134 -159 -134 -197 0 -16 78 -23 259 -23 l258 0 60 155 c58 150 183
552 183 588 0 40 -117 11 -200 -50z m-71 -472 c14 -22 -40 -41 -182 -60 -113
-15 -117 -4 -17 48 66 34 181 41 199 12z"/>
<path d="M3165 747 c-47 -19 34 -263 202 -607 l63 -130 257 -6 256 -5 -44 78
c-73 130 -135 197 -155 167 -23 -34 -46 -6 -112 135 -106 230 -344 417 -467
368z m224 -260 c-47 -35 -69 -34 -69 2 0 15 16 32 35 36 55 13 75 -9 34 -38z"/>
<path d="M3058 655 c-1 -3 -26 -149 -55 -325 l-54 -320 148 -6 c185 -7 175
-34 103 268 -85 355 -118 443 -142 383z"/>
<path d="M3664 355 c43 -92 76 -122 76 -69 0 14 -27 57 -60 95 l-61 69 45 -95z"/>
</g>
</svg>
