 <svg  version="1.0" xmlns="http://www.w3.org/2000/svg"  width="300.000000pt" height="300.000000pt" viewBox="0 0 300.000000 300.000000"  preserveAspectRatio="xMidYMid meet">  <g transform="translate(0.000000,300.000000) scale(0.050000,-0.050000)" fill="#ffffff" stroke="none"> <path d="M1560 5948 c-49 -26 -102 -43 -117 -38 -18 7 -23 0 -16 -20 7 -18 1 -30 -15 -30 -15 0 -32 -16 -37 -36 -5 -19 -29 -37 -54 -38 -58 -5 -77 -24 -45 -44 34 -20 -33 -79 -81 -71 -19 3 -30 -3 -23 -14 7 -11 -7 -25 -30 -31 -33 -8 -39 -21 -29 -61 12 -46 8 -50 -40 -41 -29 6 -54 5 -56 -2 -1 -6 -4 -32 -7 -57 -7 -64 -46 -103 -149 -148 -50 -22 -107 -49 -126 -59 -49 -26 -141 -23 -124 4 9 13 -7 19 -44 15 -88 -11 -156 67 -97 111 26 18 22 23 -22 25 -42 2 -57 -11 -81 -67 -29 -70 -142 -88 -164 -26 -3 11 -29 20 -56 20 -61 0 -54 47 8 56 155 23 141 284 -18 335 -28 9 -35 23 -26 53 9 27 6 36 -9 27 -12 -7 -22 0 -22 16 0 16 11 34 25 39 19 7 18 17 -5 41 -49 51 -87 13 -58 -59 13 -32 28 -80 32 -107 5 -26 26 -73 49 -105 36 -51 37 -138 1 -133 -116 16 -160 -33 -79 -90 l45 -31 -45 -1 c-174 -4 174 -137 449 -171 57 -8 108 -25 113 -40 40 -103 -255 -82 -574 41 -31 12 -35 6 -30 -43 5 -37 19 -58 39 -58 17 0 47 -16 66 -35 19 -19 52 -35 73 -35 22 0 39 -13 39 -30 0 -16 9 -30 20 -30 11 0 20 23 20 50 0 28 9 50 19 50 40 0 60 -156 50 -409 -8 -232 -27 -975 -28 -1146 -1 -44 -11 -65 -31 -65 -16 0 -30 9 -30 20 0 11 -37 16 -85 12 -47 -5 -101 -9 -120 -10 -21 -1 -35 -18 -35 -41 0 -38 14 -39 345 -35 323 4 345 2 352 -34 10 -53 -37 -132 -80 -132 -19 0 -46 -19 -59 -43 -12 -24 -53 -73 -90 -111 -38 -37 -68 -75 -68 -84 0 -40 -165 -128 -246 -132 -157 -7 -154 -5 -152 -75 0 -36 6 -54 11 -40 15 37 81 30 96 -10 12 -31 18 -29 52 15 l38 50 1 -46 c0 -25 -15 -68 -33 -95 -31 -48 -30 -53 12 -98 50 -53 39 -99 -19 -81 -25 8 -45 -1 -59 -28 -19 -36 -15 -38 42 -31 83 10 144 -23 131 -73 -7 -27 7 -52 46 -81 75 -56 59 -102 -30 -86 -47 9 -67 4 -76 -18 -15 -38 60 -67 92 -35 15 15 32 12 57 -11 29 -26 42 -28 65 -9 48 40 156 -26 141 -85 -11 -45 -10 -45 190 -46 200 0 226 7 174 51 -85 70 -191 418 -193 632 -2 167 -47 5 -56 -199 -8 -194 0 -241 67 -399 55 -133 -351 238 -448 408 -101 177 -89 216 138 454 288 302 435 609 467 976 13 145 -8 83 -58 -167 -18 -91 -52 -217 -76 -279 l-43 -112 -16 69 c-35 145 -26 897 12 1069 151 669 527 1149 1123 1433 l160 76 -180 -2 c-149 -1 -195 -9 -270 -49z m-580 -763 c-2 -61 -109 -105 -255 -105 -85 0 -117 38 -61 73 57 35 316 62 316 32z m-339 -176 c13 -16 35 -29 48 -29 30 0 27 -47 -9 -143 -16 -43 -37 -69 -51 -64 -18 7 -24 -14 -21 -72 2 -44 -1 -81 -7 -81 -6 0 -13 -42 -15 -92 -3 -51 -18 -113 -34 -138 -17 -25 -24 -52 -16 -59 17 -17 19 -271 2 -271 -6 0 -11 -13 -11 -29 0 -16 6 -25 14 -20 19 11 40 -43 24 -59 -34 -35 -15 -100 38 -130 79 -45 71 -79 -23 -94 -70 -12 -78 -18 -68 -58 16 -63 -27 -210 -62 -210 -60 0 -84 695 -52 1504 2 43 13 55 57 60 122 15 163 12 186 -15z"/> <path d="M4063 5941 c867 -439 1465 -1611 1272 -2491 -5 -22 -6 -30 -1 -17 5 13 22 29 38 35 17 6 25 3 19 -7 -15 -24 23 -47 50 -30 14 8 14 21 -2 41 -19 22 -17 28 10 28 18 0 28 9 21 20 -7 11 -1 21 14 22 14 1 -3 10 -39 20 -213 62 52 136 490 138 60 0 65 5 65 65 -1 42 -6 56 -17 39 -13 -20 -23 -18 -45 9 -18 22 -19 29 -3 20 49 -30 24 27 -26 60 -79 52 -459 475 -494 550 -72 156 -37 219 69 123 36 -32 37 -30 32 31 -2 35 -14 60 -25 56 -89 -30 -214 117 -162 191 17 25 31 54 31 65 0 12 -7 10 -16 -3 -10 -16 -25 -18 -45 -5 -21 13 -22 18 -3 19 15 0 6 19 -22 45 -26 25 -44 56 -39 70 4 14 -5 30 -22 37 -17 6 -25 25 -19 41 7 18 -3 33 -26 40 -21 5 -55 46 -75 90 -21 43 -42 74 -48 69 -6 -6 2 -27 17 -47 25 -32 25 -33 -7 -8 -19 16 -35 41 -35 57 0 17 -10 23 -25 13 -17 -10 -17 -4 2 19 24 29 23 35 -7 47 -69 26 102 86 232 81 90 -4 118 1 118 23 0 19 14 24 45 15 109 -29 147 -34 105 -14 -36 17 -35 19 14 21 29 0 58 9 64 18 6 10 47 15 92 11 62 -5 80 0 80 25 0 24 -12 28 -52 18 -33 -8 -47 -5 -38 8 7 12 26 21 43 21 20 0 27 11 19 31 -6 18 -3 26 8 19 11 -7 20 -25 20 -41 0 -16 4 -29 8 -29 5 0 24 -6 44 -13 22 -9 30 -6 21 8 -8 13 2 17 27 11 22 -6 40 -1 40 12 0 12 7 21 15 20 71 -12 105 5 105 52 0 33 -12 51 -35 52 -63 4 -155 -6 -175 -18 -11 -7 -56 -15 -99 -18 -44 -3 -94 -11 -110 -18 -37 -16 -65 -22 -171 -37 -44 -6 -125 -20 -180 -31 -55 -10 -127 -23 -160 -27 -33 -5 -111 -20 -172 -34 -138 -32 -238 -2 -238 69 0 24 -18 59 -40 77 -22 19 -40 48 -40 65 0 22 -15 28 -50 22 -34 -6 -50 0 -50 19 0 16 -25 34 -55 41 -138 33 -151 124 -17 120 48 -1 84 -8 79 -16 -4 -8 25 -11 67 -7 41 3 78 16 82 29 5 16 -92 22 -339 21 l-347 -1 113 -57z m1466 -1700 c27 -37 44 -76 37 -87 -7 -11 -2 -14 10 -7 11 8 26 5 33 -5 6 -10 -3 -23 -19 -29 -24 -9 -25 -23 -8 -67 12 -33 15 -93 6 -146 -8 -49 -13 -97 -11 -105 5 -24 -18 -17 -51 16 -18 18 -26 51 -21 80 5 28 2 55 -8 61 -27 16 -20 108 8 110 18 1 17 4 -2 12 -23 9 -23 14 0 28 22 15 22 21 0 35 -14 10 -25 23 -23 31 7 30 -25 132 -42 132 -10 0 -18 9 -18 21 0 34 55 -6 109 -80z m256 -274 c138 -127 141 -179 11 -193 -84 -9 -142 15 -100 43 21 13 20 21 -3 41 -18 14 -26 50 -22 93 3 37 -2 74 -13 80 -10 6 -18 20 -18 31 0 28 41 1 145 -95z"/> <path d="M2189 5951 c-493 -108 -1030 -560 -1263 -1066 -100 -216 -219 -785 -165 -785 13 0 18 -14 11 -31 -6 -18 -3 -26 8 -19 11 7 20 48 20 91 0 44 8 79 19 79 10 0 15 18 11 40 -4 22 1 40 11 40 11 0 19 22 19 49 0 27 9 54 20 61 11 7 15 34 8 61 -12 46 5 60 58 51 10 -2 11 7 4 19 -8 12 -1 37 15 55 35 41 84 213 68 239 -7 11 1 36 17 57 16 21 29 54 29 74 1 20 33 66 71 103 39 36 70 73 70 81 0 9 22 36 50 62 32 30 45 57 37 80 -11 28 -4 32 38 24 40 -8 49 -3 40 20 -8 20 -4 26 12 16 14 -8 23 -2 23 16 0 16 34 55 75 86 41 31 78 62 81 70 4 8 18 9 33 4 14 -6 31 3 37 18 6 16 36 35 66 43 31 7 78 38 105 67 28 29 59 54 71 56 12 1 42 3 67 5 25 2 45 16 45 33 0 21 21 30 70 30 98 0 96 0 133 32 17 17 57 34 88 40 48 9 149 90 149 119 0 17 -129 6 -251 -20z m-1218 -1204 c-18 -118 -31 -150 -54 -135 -31 19 20 228 56 228 6 0 5 -42 -2 -93z"/> <path d="M3548 5951 c-16 -41 7 -70 49 -62 20 4 49 -10 64 -31 15 -21 44 -38 63 -38 20 0 36 -10 36 -22 0 -12 13 -17 30 -11 16 6 72 -10 125 -37 52 -26 120 -53 151 -60 31 -6 50 -20 44 -30 -7 -11 2 -14 19 -8 17 7 31 2 31 -11 0 -13 8 -18 19 -12 19 12 101 -63 101 -93 0 -9 13 -16 29 -16 15 0 42 -14 60 -31 23 -24 31 -25 32 -5 0 16 8 13 21 -9 11 -19 29 -35 39 -35 10 0 37 -18 59 -40 22 -22 33 -40 25 -40 -8 0 17 -27 55 -60 39 -33 78 -60 87 -60 10 0 13 -22 8 -49 -5 -28 -3 -46 5 -41 28 17 87 -68 67 -95 -11 -14 -18 -36 -16 -50 2 -14 5 -33 7 -44 1 -10 16 -32 33 -50 21 -20 23 -31 8 -31 -36 0 13 -53 62 -66 47 -12 46 -17 8 75 -17 41 -28 85 -24 97 13 37 79 -81 83 -145 1 -32 11 -66 20 -75 11 -9 12 -5 4 9 -25 44 12 27 63 -29 42 -45 46 -60 26 -92 -15 -23 -15 -33 -2 -25 11 7 22 2 24 -13 2 -14 6 -48 9 -76 3 -27 8 -70 11 -95 3 -25 13 -45 22 -45 10 0 12 -8 6 -18 -6 -10 -2 -22 9 -25 39 -13 78 -235 78 -447 1 -209 -36 -433 -97 -593 l-43 -114 -175 80 -176 80 26 123 c76 359 -2 1101 -150 1434 -53 120 -54 59 -1 -80 143 -377 178 -986 76 -1365 -23 -89 -36 -91 -116 -24 -43 37 -74 48 -104 38 -31 -10 -59 4 -110 53 -63 61 -93 116 -48 88 11 -7 20 -3 20 9 0 14 -87 21 -250 21 -192 0 -250 6 -250 26 0 85 228 110 258 29 20 -54 71 164 93 392 17 188 23 165 36 -145 11 -264 24 -331 46 -247 6 24 28 49 47 55 31 10 34 22 17 81 -10 38 -13 80 -5 92 9 14 5 18 -9 9 -13 -8 -23 -10 -23 -6 0 5 -14 44 -32 86 -29 70 -29 74 0 50 18 -15 32 -39 32 -54 0 -34 32 -37 52 -5 9 14 5 18 -9 9 -13 -8 -23 -6 -23 5 0 11 11 24 25 29 14 6 -3 20 -38 33 -61 23 -62 26 -85 217 -58 488 -102 664 -225 909 -91 181 -99 134 -16 -92 108 -290 157 -489 183 -738 27 -244 24 -250 -81 -218 -43 13 -114 23 -157 23 l-80 0 9 97 c6 63 -1 117 -20 155 -17 32 -37 97 -45 144 -11 71 -19 82 -42 62 -23 -19 -28 -11 -28 45 -1 43 -7 58 -17 41 -22 -34 -48 -2 -84 101 -38 107 -58 93 -49 -34 6 -85 2 -107 -19 -99 -33 13 -51 99 -51 251 0 69 -9 117 -21 117 -12 0 -16 -9 -9 -20 7 -11 3 -20 -9 -20 -26 0 -28 33 -3 49 11 6 9 32 -5 59 -15 33 -27 41 -37 25 -12 -17 -15 -17 -16 1 0 13 10 30 21 37 14 8 8 23 -15 40 -20 15 -28 28 -17 28 10 1 3 12 -16 26 -19 14 -36 45 -38 69 -2 24 -8 43 -14 42 -43 -4 -61 13 -82 79 -36 112 -59 125 -59 31 0 -97 -17 -150 -42 -135 -10 6 -18 3 -18 -8 0 -11 11 -24 25 -28 18 -7 15 -21 -13 -51 -20 -24 -41 -81 -47 -128 -5 -47 -22 -93 -37 -102 -16 -9 -27 -31 -27 -50 2 -28 5 -27 19 6 14 33 17 34 19 6 0 -18 -8 -39 -19 -46 -13 -8 -13 -25 0 -50 15 -28 12 -45 -11 -69 -18 -17 -23 -31 -13 -31 11 0 25 -14 31 -30 10 -25 5 -27 -27 -10 -36 19 -38 17 -20 -31 26 -66 26 -115 0 -99 -11 7 -15 0 -9 -16 6 -15 0 -53 -13 -86 -14 -32 -26 -161 -28 -287 -3 -153 -12 -232 -27 -237 -13 -4 -18 -16 -11 -27 6 -11 0 -47 -14 -81 -22 -55 -27 -58 -40 -24 -11 28 -16 18 -17 -35 0 -41 -12 -79 -26 -85 -20 -10 -20 -14 0 -24 36 -16 31 -178 -6 -251 -18 -33 -34 -58 -36 -54 -2 4 -21 29 -43 55 -22 27 -29 42 -15 34 44 -25 27 22 -20 56 l-45 33 50 -11 50 -10 -46 23 c-31 16 -41 34 -31 55 7 18 16 106 19 196 2 90 10 182 18 205 7 24 4 41 -9 41 -11 0 -21 18 -21 39 0 27 10 36 30 28 17 -6 30 -1 30 11 0 12 -10 22 -22 22 -14 0 -17 42 -7 130 9 87 7 130 -8 130 -12 0 -24 -51 -27 -115 l-6 -115 -200 7 c-175 6 -303 -9 -438 -50 -30 -9 -35 -4 -25 23 24 61 113 474 112 518 -1 78 -31 -8 -101 -285 -63 -250 -71 -268 -128 -295 l-60 -28 57 11 c47 9 54 5 45 -25 -25 -81 -77 -380 -75 -429 2 -37 -13 -63 -50 -87 -148 -97 -230 -194 -195 -232 27 -30 30 -61 18 -179 l-15 -144 -256 8 c-142 5 -263 14 -270 21 -58 58 9 1428 82 1689 7 23 4 48 -7 54 -46 29 -104 -545 -118 -1161 -10 -469 -16 -550 -45 -580 -44 -47 -44 -52 -11 -145 19 -54 21 -84 7 -93 -60 -37 -127 -239 -119 -358 6 -94 11 -109 22 -68 8 29 12 76 9 105 -8 76 25 65 61 -19 19 -47 30 -137 30 -249 0 -97 8 -199 19 -226 20 -52 7 -139 -19 -123 -9 5 -27 -4 -40 -20 -19 -23 -32 -25 -52 -8 -35 28 -88 9 -88 -32 0 -41 60 -63 80 -30 14 23 103 5 156 -31 3 -2 -5 -28 -19 -57 -18 -41 -18 -59 0 -77 35 -35 28 -49 -28 -64 -69 -17 -58 -79 16 -87 62 -7 69 -27 25 -64 -45 -37 -36 -78 20 -92 41 -10 49 -23 45 -75 -5 -57 0 -63 55 -65 33 0 74 -7 90 -14 17 -7 47 -11 68 -8 21 2 42 -9 47 -24 6 -16 1 -22 -11 -14 -32 19 -68 -56 -41 -83 16 -16 35 -16 69 -1 34 16 54 16 73 0 15 -12 45 -18 67 -12 24 6 52 -2 67 -21 22 -26 21 -31 -7 -31 -18 0 -50 -11 -72 -24 -29 -19 -45 -19 -62 -2 -27 27 -78 12 -78 -24 0 -45 56 -78 88 -51 20 16 33 16 41 2 18 -29 -75 -61 -198 -69 -55 -4 -117 -14 -136 -22 -20 -8 -48 -4 -62 8 -47 39 -105 -43 -62 -87 19 -18 30 -36 26 -39 -17 -15 -303 -48 -329 -38 -36 14 -93 -33 -80 -66 11 -29 -110 -128 -157 -128 -18 0 -31 17 -31 40 0 29 -13 40 -48 40 -78 0 -112 -21 -112 -70 0 -79 -106 -86 -130 -9 -7 22 -24 32 -41 26 -41 -16 -36 -41 11 -53 60 -16 48 -46 -35 -89 -72 -37 -75 -43 -81 -153 l-6 -115 56 41 c57 42 681 312 1206 523 252 101 296 125 338 188 80 117 117 100 304 -134 90 -113 208 -251 262 -306 l98 -102 -51 -88 c-63 -112 -69 -219 -11 -219 22 0 40 10 40 23 0 38 108 197 134 197 13 0 30 10 38 23 9 14 5 18 -9 9 -14 -9 -18 -3 -11 17 7 17 20 26 29 21 9 -6 22 8 29 31 65 202 578 558 540 374 -14 -64 -188 -590 -219 -661 -15 -33 -6 -36 81 -30 l98 6 50 319 c71 440 82 436 201 -64 l63 -265 84 0 85 0 -74 155 c-195 410 -244 574 -179 595 121 38 350 -153 458 -383 55 -115 102 -175 102 -128 0 53 48 10 124 -109 156 -244 178 -149 26 105 l-87 146 55 134 c65 159 98 280 58 215 -13 -22 -48 -105 -76 -185 l-52 -145 -126 141 c-119 133 -130 154 -197 375 -71 237 -93 284 -131 284 -11 0 -6 -16 11 -35 73 -84 63 -111 -88 -241 -168 -144 -192 -143 -125 8 135 306 158 336 292 380 l86 29 -85 -11 c-83 -10 -85 -9 -85 48 l0 58 99 -31 c54 -18 94 -39 89 -49 -6 -9 10 -16 36 -16 72 -1 87 -19 165 -190 91 -201 193 -370 222 -370 12 0 219 -89 460 -197 242 -108 531 -235 644 -282 241 -100 294 -138 328 -232 27 -74 92 -94 148 -44 85 77 90 79 120 54 23 -19 36 -18 59 1 49 40 35 64 -35 57 -145 -13 -216 27 -176 100 30 58 -6 95 -67 68 -34 -16 -55 -17 -63 -3 -7 11 -35 29 -61 39 -36 13 -48 33 -48 77 0 57 -2 58 -145 75 l-145 17 0 65 c0 36 -4 65 -10 65 -30 -1 -63 -39 -51 -58 20 -33 -72 -28 -121 7 -29 20 -42 53 -45 111 -1 46 -10 97 -20 113 -9 17 -9 77 0 133 9 57 10 130 3 163 -7 34 -10 125 -8 204 3 89 -5 159 -21 184 -21 34 -20 47 7 77 20 23 28 58 22 97 -12 77 37 128 84 89 40 -33 38 -92 -6 -136 -38 -38 -28 -166 14 -180 12 -4 22 -33 22 -64 0 -87 37 -91 44 -5 5 59 14 75 46 76 79 1 97 -95 25 -135 -38 -22 -44 -37 -34 -96 l11 -70 16 65 c17 74 110 98 114 30 6 -80 9 -92 30 -99 13 -4 18 15 13 52 -16 105 81 125 133 27 26 -49 199 -56 246 -9 30 30 -34 57 -69 29 -29 -24 -115 3 -115 36 0 12 -10 15 -21 8 -28 -17 -99 48 -99 90 0 98 110 108 129 12 12 -65 15 -68 62 -47 54 24 67 94 19 99 -16 1 -41 3 -54 5 -13 1 -30 25 -38 52 -8 28 -15 37 -16 22 -1 -16 -7 -23 -14 -17 -7 7 -5 23 3 37 11 18 21 16 38 -8 15 -20 33 -25 51 -14 24 15 22 25 -9 59 -36 40 -30 71 13 71 55 0 65 68 17 119 -34 36 -40 52 -19 53 15 2 37 5 48 7 11 3 31 6 45 8 14 2 25 22 25 45 0 36 -8 40 -53 29 -69 -17 -102 28 -42 58 62 31 63 60 6 122 -61 65 -53 79 38 73 80 -6 109 27 63 73 -26 26 -40 28 -70 9 -31 -19 -44 -17 -73 15 -19 21 -42 33 -51 27 -10 -5 -12 5 -5 23 12 30 15 30 31 2 10 -19 30 -26 52 -19 53 20 64 50 33 94 -58 82 -48 88 171 99 48 2 71 14 76 38 10 49 -50 66 -94 27 -33 -30 -39 -30 -62 -2 -18 22 -44 28 -81 20 -38 -9 -57 -3 -66 19 -7 19 -1 31 18 31 28 0 80 96 61 114 -7 8 -57 21 -97 24 -9 1 -2 23 15 49 36 56 17 81 -80 104 -33 7 -71 28 -85 45 -17 21 -25 23 -25 7 0 -14 -9 -20 -20 -13 -11 7 -20 26 -20 42 0 17 10 24 21 17 12 -7 39 3 60 22 41 37 155 -8 128 -52 -27 -45 51 -14 86 34 l38 52 45 -47 c42 -45 46 -46 71 -13 32 43 40 43 82 1 32 -32 35 -32 59 0 27 38 81 45 100 14 19 -31 70 -24 70 10 0 17 18 30 40 30 22 0 40 -13 40 -30 0 -16 9 -30 20 -30 11 0 20 32 20 72 l0 72 -225 -12 c-124 -7 -243 -14 -265 -16 -22 -2 -119 -2 -215 0 l-175 4 0 81 c0 44 14 113 30 152 17 40 30 90 30 112 0 31 6 35 27 18 15 -13 34 -16 43 -8 8 8 10 -52 3 -135 -11 -135 -10 -146 17 -111 17 21 30 50 30 63 0 14 6 40 13 60 9 22 6 30 -7 22 -14 -9 -24 99 -31 331 -22 747 -216 1252 -663 1730 -294 314 -1009 661 -1064 516z m-301 -746 c109 -452 246 -1308 257 -1599 2 -41 10 -60 24 -51 12 7 -7 -21 -43 -62 -85 -97 -83 -127 5 -73 39 24 70 38 70 33 0 -6 -13 -61 -29 -122 -48 -185 -1 -342 59 -197 l32 75 50 -64 c63 -80 88 -81 175 -5 l69 61 42 -53 c23 -29 42 -60 42 -69 0 -36 -25 -78 -41 -69 -9 6 -39 -12 -67 -40 l-50 -50 56 0 c143 0 230 292 151 510 -39 108 -38 110 36 110 108 -1 285 -222 243 -304 -57 -110 -20 -120 57 -15 72 97 74 103 45 159 -41 79 -38 86 25 71 74 -18 93 -41 75 -85 -9 -20 -19 -45 -22 -56 -274 -964 -293 -1015 -410 -1113 -115 -97 -122 -120 -33 -104 l65 12 -50 -51 c-55 -57 -548 -345 -833 -487 l-183 -92 -97 33 c-53 19 -199 86 -323 150 -124 64 -229 109 -234 101 -13 -20 19 -42 160 -110 66 -32 127 -70 136 -84 9 -14 24 -21 34 -15 9 6 23 1 30 -10 7 -11 21 -15 31 -9 11 6 19 2 19 -10 0 -11 21 -21 48 -21 26 0 57 -12 69 -26 16 -19 52 -22 137 -12 243 30 246 30 246 -69 0 -65 -12 -97 -47 -130 -26 -25 -86 -137 -134 -249 -47 -112 -87 -206 -90 -210 -2 -3 -81 40 -175 96 -164 97 -172 104 -153 152 37 98 59 127 89 115 17 -6 30 -1 30 11 0 12 -21 22 -47 22 -51 0 -65 -31 -215 -461 -52 -150 -74 -186 -185 -296 l-126 -125 -263 320 c-242 295 -293 382 -222 382 10 0 18 11 18 25 0 14 57 110 125 214 l125 188 117 8 c70 5 112 0 106 -11 -7 -10 -37 -15 -68 -11 -88 12 -35 -6 299 -101 390 -110 358 -90 466 -303 49 -98 85 -156 78 -129 -72 297 -151 364 -557 469 -210 55 -206 48 -209 316 -1 129 -9 175 -28 175 -76 0 -351 203 -425 314 -97 145 -115 167 -97 116 12 -36 10 -37 -18 -10 -26 25 -34 112 -45 520 l-14 490 52 -48 c64 -59 66 -46 12 61 -40 77 -40 83 -7 119 58 65 74 45 58 -75 l-14 -113 112 13 c102 12 112 10 112 -25 0 -60 22 -102 52 -102 15 0 28 16 28 36 0 94 48 112 116 45 71 -71 118 -70 201 6 46 42 47 42 75 4 59 -81 -14 -211 -119 -211 -29 0 -53 -9 -53 -20 0 -31 126 -24 174 10 76 53 112 189 102 379 -7 143 -4 166 19 147 15 -13 26 -54 24 -95 -1 -39 -2 -76 -1 -83 1 -7 58 -2 126 10 l125 22 37 100 c159 423 274 1179 274 1793 0 130 4 237 8 237 5 0 40 -133 79 -295z m430 -815 c36 -180 36 -180 -6 -193 -41 -13 -41 -13 1 -15 47 -2 55 -35 80 -364 l13 -172 -86 -14 c-48 -8 -99 -23 -113 -35 -20 -17 -26 -10 -26 29 0 39 20 64 85 103 47 28 75 51 64 51 -12 0 -39 -13 -60 -29 -22 -17 -47 -30 -56 -30 -24 -1 8 306 35 324 16 10 16 14 -1 15 -17 0 -24 76 -25 255 -1 140 -6 309 -12 375 l-9 120 40 -120 c22 -66 56 -201 76 -300z m-1072 -164 c56 -32 7 -66 -96 -66 -69 0 -107 -8 -99 -20 7 -11 51 -20 99 -20 l87 0 14 -139 c16 -163 -4 -355 -34 -325 -14 14 -12 68 4 163 13 79 19 149 12 156 -7 6 -12 -8 -12 -32 0 -23 -9 -43 -20 -43 -12 0 -15 -21 -8 -50 7 -27 4 -50 -6 -50 -11 0 -15 -28 -10 -62 9 -59 6 -62 -48 -51 -271 54 -619 88 -601 58 7 -12 -1 -26 -17 -32 -31 -12 -31 58 1 108 7 12 29 99 48 194 40 196 31 190 290 225 112 15 362 6 396 -14z m1401 -76 c120 -16 143 -58 66 -120 -46 -37 -55 -60 -55 -137 l0 -93 -81 0 c-73 0 -78 3 -53 33 18 23 20 36 5 41 -13 4 -18 31 -11 62 l10 54 15 -50 c13 -46 14 -47 16 -6 1 24 -7 49 -18 56 -11 7 -20 26 -20 43 0 16 -13 43 -30 60 -46 46 -38 89 15 78 25 -5 88 -14 141 -21z m-1983 -616 c-23 -36 -47 -104 -55 -151 -12 -78 -15 -82 -41 -45 -15 22 -48 42 -72 46 -128 18 0 213 142 215 l66 1 -40 -66z m404 25 c67 -19 75 -28 65 -70 -39 -153 -95 -196 -132 -99 -30 79 -111 68 -143 -20 -24 -67 -29 -70 -121 -70 -114 0 -128 57 -55 218 l40 88 134 -13 c74 -7 170 -23 212 -34z m1393 -74 c-1 -41 -143 -165 -189 -165 -103 0 -56 152 54 177 124 27 135 27 135 -12z m220 -127 c0 -69 -26 -74 -69 -14 -33 47 -41 119 -16 144 24 24 85 -68 85 -130z m-1500 42 c0 -55 -30 -96 -54 -73 -6 6 -5 43 3 83 15 82 51 75 51 -10z m2201 -153 c25 -66 18 -111 -19 -123 -17 -6 -22 0 -14 13 9 14 -1 23 -27 23 -48 0 -55 36 -10 53 21 8 24 19 10 36 -21 25 -9 51 23 51 9 0 26 -24 37 -53z m158 -242 c0 -140 -12 -321 -26 -401 -14 -80 -20 -150 -12 -155 32 -19 138 530 139 718 0 25 10 33 29 26 17 -6 39 4 50 23 41 71 15 -703 -30 -884 -13 -52 -391 -187 -580 -206 l-111 -12 44 108 c23 59 48 126 54 148 6 22 41 75 77 119 93 109 237 412 290 607 60 226 77 206 76 -91z m-3887 -3 c-1 -65 -8 -114 -16 -109 -23 14 -41 140 -27 185 25 78 45 42 43 -76z m3708 79 c0 -11 -14 -14 -31 -8 -18 7 -42 -3 -57 -24 -20 -27 -29 -29 -42 -9 -11 19 -8 21 10 10 20 -12 23 -7 14 17 -10 26 -1 33 47 33 32 0 59 -9 59 -19z m-40 -101 c0 -11 -9 -20 -19 -20 -11 0 -14 -14 -8 -31 7 -18 -4 -43 -25 -59 -21 -16 -30 -29 -19 -29 10 -1 -8 -29 -40 -64 -33 -35 -48 -57 -34 -49 45 26 27 -59 -22 -101 l-46 -41 0 56 c0 31 6 52 13 48 8 -5 10 12 5 37 -4 26 4 59 20 75 16 16 27 54 26 86 -1 32 10 70 25 85 31 31 124 37 124 7z m513 -173 c6 5 0 29 -13 54 -19 35 -19 42 3 35 15 -5 28 -40 29 -78 1 -37 21 -116 45 -174 86 -211 41 -355 -171 -541 -135 -118 -128 -119 -113 14 11 92 18 104 55 99 23 -4 40 -19 37 -33 -13 -58 34 3 66 87 34 89 34 197 -1 530 -12 109 -12 110 21 53 18 -31 37 -52 42 -46z m-3807 50 c2 -4 1 -125 -2 -268 l-6 -262 -157 30 c-185 35 -181 28 -181 338 l0 191 171 -11 c94 -6 173 -14 175 -18z m190 -14 c20 -13 19 -28 -5 -75 -54 -102 -24 -332 51 -400 66 -60 48 -84 -57 -73 -127 13 -121 -1 -128 300 l-7 265 60 0 c33 0 72 -8 86 -17z m3715 -98 c11 -8 19 -26 17 -40 -2 -14 -4 -36 -5 -49 -4 -33 -35 3 -52 59 -14 45 2 57 40 30z m-4303 -135 c7 -44 18 -107 24 -140 17 -83 -2 -58 -39 52 -17 51 -26 112 -19 136 14 56 20 49 34 -48z m179 -310 c18 0 33 -9 33 -20 0 -11 14 -20 30 -20 17 0 30 -9 30 -20 0 -27 -27 -25 -57 5 -20 20 -29 18 -45 -10 -40 -71 -98 -43 -98 48 0 79 2 82 37 50 20 -18 51 -33 70 -33z m213 -84 c0 -56 -1 -57 -50 -24 -36 24 -45 40 -31 57 38 45 81 28 81 -33z m176 -26 l44 -50 -70 0 c-61 0 -70 6 -70 50 0 28 12 50 26 50 15 0 46 -22 70 -50z m2781 -68 c-92 -243 -677 -718 -677 -550 0 41 40 34 41 -7 1 -19 19 10 42 65 45 111 74 154 96 141 48 -30 328 183 360 274 27 77 126 180 144 150 7 -12 5 -45 -6 -73z m568 66 c22 -22 -9 -68 -46 -68 -42 0 -67 31 -49 60 14 22 76 27 95 8z m-3651 -50 c97 -23 198 -45 224 -51 26 -5 80 -16 120 -24 l71 -15 34 -339 c19 -186 41 -415 49 -507 l14 -169 -88 49 -88 49 -44 209 c-25 116 -55 309 -67 430 -27 272 -35 310 -59 310 -31 0 -23 -200 20 -548 22 -175 36 -323 31 -328 -10 -10 -325 170 -340 194 -5 8 -18 136 -30 283 -33 411 -38 499 -30 499 4 0 87 -19 183 -42z m3356 -58 c-20 -22 -46 -38 -58 -36 -12 3 -71 -47 -132 -111 -133 -142 -232 -203 -209 -129 23 74 105 229 140 264 38 38 189 44 189 8 0 -15 13 -12 34 10 48 48 80 43 36 -6z m226 -78 c-10 -86 -115 -75 -116 12 0 13 14 38 32 55 43 43 92 4 84 -67z m95 6 c-7 -27 -21 -44 -32 -38 -28 18 -23 105 6 115 33 12 42 -15 26 -77z m376 48 c14 -56 -21 -100 -75 -92 -43 6 -64 57 -44 107 18 47 106 36 119 -15z m-177 -37 c0 -32 -13 -51 -38 -56 -54 -10 -77 39 -37 82 41 46 75 35 75 -26z m-3322 -41 c29 -33 52 -78 52 -100 0 -54 -14 -47 -51 24 -18 34 -37 56 -44 50 -7 -7 -2 -23 11 -36 34 -34 30 -66 -4 -37 -34 28 -74 133 -57 149 22 22 42 12 93 -50z m2813 -75 c-1 -51 4 -335 10 -631 13 -589 8 -656 -47 -605 -95 88 -125 113 -134 113 -5 0 -19 0 -30 0 -11 0 -20 21 -20 46 0 25 -11 57 -24 70 -19 19 -16 24 10 24 44 0 44 52 0 69 -19 7 -29 7 -21 0 7 -8 0 -40 -16 -71 -16 -32 -32 -64 -34 -73 -15 -47 -175 14 -175 66 0 41 -35 53 -80 29 -22 -12 -51 -16 -63 -8 -14 9 -3 24 30 42 82 43 41 123 -51 99 -51 -13 -116 35 -115 85 0 27 3 27 21 -3 24 -42 98 -14 98 36 0 42 -54 59 -91 28 -25 -21 -37 -18 -70 17 -52 56 -50 64 21 64 46 0 60 9 60 39 0 51 -30 68 -76 43 -34 -18 -65 -7 -141 50 -25 19 25 45 55 29 48 -26 114 20 96 66 -8 22 -2 33 18 33 16 0 27 -14 24 -32 -8 -45 55 -85 85 -55 31 31 4 107 -37 107 -28 1 -29 4 -6 18 16 10 41 13 56 8 38 -15 161 53 172 95 10 36 88 57 190 50 48 -3 63 3 56 22 -6 15 -3 27 7 27 10 0 22 -11 28 -25 5 -14 11 2 11 34 1 38 21 76 55 105 29 25 46 46 36 46 -9 0 1 13 22 28 55 41 71 21 70 -85z m404 31 c44 -16 47 -111 3 -127 -51 -20 -97 40 -69 91 16 30 16 42 1 42 -13 0 -16 10 -9 22 8 13 19 15 27 4 6 -11 28 -25 47 -32z m-2937 -213 c43 -55 10 -141 -62 -161 -20 -5 -39 -23 -42 -40 -6 -29 -129 -222 -137 -214 -2 2 10 54 26 114 22 81 27 166 18 318 l-11 209 85 -90 c47 -49 102 -110 123 -136z m3122 149 c0 -46 -9 -60 -38 -60 -55 0 -86 58 -53 99 42 51 91 30 91 -39z m121 49 c17 -28 -6 -119 -31 -119 -10 0 -29 19 -41 41 -32 61 36 136 72 78z m-571 -58 c0 -73 -37 -99 -72 -51 -19 25 -21 46 -7 73 32 59 79 46 79 -22z m152 31 c16 -43 -30 -115 -68 -108 -36 7 -54 61 -36 107 14 37 90 38 104 1z m378 -182 c0 -51 -8 -60 -50 -60 -51 0 -74 45 -52 103 22 57 102 24 102 -43z m-310 -11 c0 -53 -7 -61 -45 -55 -71 10 -77 116 -6 116 44 0 51 -9 51 -61z m156 15 c4 -20 -3 -48 -16 -64 -43 -52 -113 13 -87 81 16 42 95 29 103 -17z m-80 -172 c-4 -35 -20 -54 -48 -58 -53 -8 -77 64 -36 106 43 42 91 15 84 -48z m171 28 c6 -14 -1 -42 -15 -61 -32 -44 -112 -22 -112 31 0 70 103 94 127 30z m-1687 -64 c0 -87 -2 -91 -29 -55 -36 48 -39 93 -7 125 35 35 36 33 36 -70z m1369 57 c15 -47 -6 -103 -37 -103 -60 0 -99 106 -47 127 49 19 72 13 84 -24z m221 -193 c0 -76 -62 -95 -88 -26 -20 54 8 101 56 92 21 -4 32 -28 32 -66z m-1661 -538 c42 -144 42 -144 -44 -73 -41 33 -86 61 -100 61 -56 0 11 73 109 118 2 1 17 -47 35 -106z m-634 14 c38 -15 30 -37 -20 -60 -25 -11 -89 -54 -142 -95 -122 -93 -126 -88 -58 84 l55 141 70 -30 c39 -16 81 -34 95 -40z m905 -560 c0 -53 -33 -23 -76 69 l-45 95 61 -69 c33 -38 60 -81 60 -95z"/> <path d="M2020 3087 c0 -51 66 -107 126 -106 53 0 58 4 29 21 -19 11 -35 33 -35 49 0 16 -13 29 -28 29 -16 0 -43 5 -60 12 -18 7 -32 4 -32 -5z"/> <path d="M3573 2991 c28 -37 55 -50 107 -49 39 1 57 6 40 12 -16 6 -39 22 -50 35 -11 13 -45 31 -77 38 l-56 15 36 -51z"/> <path d="M2850 2180 c7 -11 48 -20 91 -20 44 0 79 9 79 20 0 11 -41 20 -91 20 -56 0 -87 -8 -79 -20z"/> <path d="M3135 2186 c-19 -5 -35 -18 -35 -30 0 -11 14 -15 32 -8 17 7 44 12 60 12 15 0 28 9 28 20 0 21 -24 22 -85 6z"/> <path d="M2164 3840 c-59 -9 -113 -23 -120 -31 -8 -8 16 -9 54 -2 37 7 125 13 196 13 80 0 124 7 116 20 -14 22 -90 22 -246 0z"/> <path d="M4055 1558 c-44 -25 -44 -46 -1 -89 41 -41 89 6 72 72 -12 44 -21 46 -71 17z"/> <path d="M3962 1373 c-35 -43 22 -83 77 -53 37 19 38 26 13 51 -36 36 -61 37 -90 2z"/> <path d="M4055 1238 c-47 -27 -44 -63 8 -95 49 -31 81 -2 72 65 -6 47 -33 57 -80 30z"/> <path d="M1883 5351 c-116 -320 -179 -648 -231 -1201 -55 -578 -55 -574 13 -522 29 22 41 104 75 504 81 977 76 934 148 1133 37 102 74 201 82 220 8 20 6 35 -6 35 -11 0 -48 -76 -81 -169z"/> <path d="M3649 5378 c-7 -23 -18 -36 -24 -29 -18 18 -82 -132 -70 -164 5 -15 23 -22 39 -16 15 6 23 2 16 -8 -17 -29 53 -91 106 -93 25 -2 41 2 35 8 -6 5 9 27 32 47 24 20 35 37 24 37 -10 0 -17 25 -16 55 4 81 -12 125 -45 125 -15 0 -24 7 -18 16 5 9 -7 27 -28 39 -32 20 -40 17 -51 -17z m73 -144 c14 -86 -11 -141 -42 -94 -11 17 -20 65 -20 107 0 98 45 89 62 -13z"/> <path d="M4347 5295 c18 -25 61 -98 97 -163 35 -64 67 -108 71 -96 14 40 -143 304 -180 304 -11 0 -5 -20 12 -45z"/> <path d="M4180 5211 c-14 -18 -17 -47 -8 -75 9 -25 14 -53 12 -62 -7 -24 43 -86 66 -83 90 11 116 83 59 165 -17 24 -27 51 -22 60 18 29 -82 24 -107 -5z m89 -74 c23 -57 27 -89 12 -104 -21 -21 -81 94 -81 156 0 58 36 31 69 -52z"/> <path d="M2133 5115 c-29 -58 -43 -108 -32 -112 10 -3 13 -17 6 -30 -7 -13 -6 -16 4 -7 9 8 20 35 23 60 4 24 20 78 36 119 43 108 24 92 -37 -30z"/> <path d="M2201 5092 c-38 -102 -42 -129 -19 -143 14 -9 19 -7 12 5 -7 11 5 37 26 56 21 19 34 43 28 53 -6 9 10 26 36 36 51 20 48 24 -21 31 -31 3 -51 -9 -62 -38z"/> <path d="M1319 4927 c-11 -29 -16 -57 -10 -62 5 -6 1 -27 -10 -46 -11 -21 -12 -41 -1 -48 20 -12 47 56 49 123 0 24 8 39 17 34 9 -6 26 -4 38 3 16 10 14 19 -5 31 -43 28 -57 21 -78 -35z"/> <path d="M5334 4827 c-23 -22 7 -47 57 -47 49 0 66 27 31 49 -10 6 -23 0 -29 -14 -8 -20 -10 -20 -11 0 -2 27 -27 33 -48 12z"/> <path d="M5547 4547 c-2 -34 10 -51 45 -59 26 -7 48 -19 48 -27 0 -8 14 -14 30 -14 48 0 36 83 -15 108 -90 43 -105 42 -108 -8z"/> <path d="M5872 4343 c-10 -16 94 -143 117 -143 6 0 11 24 11 53 0 72 -97 141 -128 90z"/> <path d="M5893 2907 c-25 -26 -13 -87 18 -87 50 0 91 50 64 77 -26 26 -62 30 -82 10z"/> <path d="M5413 2863 c-30 -33 -31 -40 -4 -62 46 -38 110 29 68 71 -26 26 -34 25 -64 -9z"/> <path d="M5571 2882 c-17 -28 10 -82 40 -82 31 0 74 68 55 87 -19 19 -82 16 -95 -5z"/> <path d="M5715 2888 c-23 -22 9 -68 47 -68 25 0 38 14 38 40 0 38 -57 57 -85 28z"/> <path d="M5645 2727 c-35 -14 -31 -66 5 -80 40 -15 91 28 77 64 -11 29 -37 34 -82 16z"/> <path d="M5804 2705 c4 -19 20 -35 36 -35 16 0 32 16 36 35 5 25 -6 35 -36 35 -30 0 -41 -10 -36 -35z"/> <path d="M5484 2685 c4 -19 24 -35 46 -35 22 0 42 16 46 35 5 26 -6 35 -46 35 -40 0 -51 -9 -46 -35z"/> <path d="M27 2629 c-7 -18 -2 -42 9 -53 29 -29 86 16 71 55 -15 39 -65 37 -80 -2z"/> <path d="M5880 2570 c-41 -49 9 -94 72 -66 45 21 46 25 15 59 -40 45 -55 46 -87 7z"/> <path d="M5728 2551 c-12 -30 4 -71 28 -71 36 1 64 37 53 67 -16 41 -66 43 -81 4z"/> <path d="M27 2329 c-17 -44 25 -85 56 -54 25 25 9 85 -23 85 -12 0 -27 -14 -33 -31z"/> <path d="M185 2347 c-39 -16 -30 -67 12 -67 47 0 63 17 49 52 -11 29 -20 31 -61 15z"/> <path d="M5893 2267 c-21 -21 -15 -83 9 -98 39 -24 89 44 59 80 -28 34 -47 39 -68 18z"/> <path d="M5582 2242 c-38 -24 -11 -87 33 -78 19 4 35 24 35 45 0 44 -28 58 -68 33z"/> <path d="M5723 2217 c5 -31 20 -47 47 -47 60 0 54 78 -7 87 -38 5 -45 -2 -40 -40z"/> <path d="M93 2184 c-19 -30 22 -70 57 -57 28 11 30 19 10 43 -28 33 -52 38 -67 14z"/> <path d="M5647 2069 c-15 -38 25 -71 67 -55 38 15 24 74 -19 82 -19 4 -41 -8 -48 -27z"/> <path d="M5807 2069 c-7 -19 -1 -41 15 -51 40 -25 68 -11 68 33 0 49 -66 63 -83 18z"/> <path d="M5953 2087 c-24 -25 -13 -67 17 -67 17 0 30 18 30 40 0 40 -21 52 -47 27z"/> <path d="M5480 2061 c-22 -15 -24 -25 -7 -42 32 -32 95 -16 103 26 8 39 -46 47 -96 16z"/> <path d="M415 2028 c-22 -22 9 -68 45 -68 36 0 67 46 45 68 -6 7 -27 12 -45 12 -18 0 -39 -5 -45 -12z"/> <path d="M169 1998 c-21 -33 22 -64 69 -49 59 19 54 71 -7 71 -27 0 -55 -10 -62 -22z"/> <path d="M5744 1916 c-13 -13 -24 -36 -24 -50 0 -37 59 -32 73 5 17 43 -19 75 -49 45z"/> <path d="M5886 1908 c-17 -44 37 -74 71 -39 15 15 22 37 14 49 -20 33 -70 27 -85 -10z"/> <path d="M127 1906 c-39 -7 -79 -60 -60 -79 13 -14 103 44 108 69 3 13 3 23 0 21 -3 -1 -24 -6 -48 -11z"/> <path d="M500 1861 c0 -63 25 -76 80 -41 36 23 5 86 -47 96 -25 5 -33 -8 -33 -55z"/> <path d="M654 1897 c-29 -16 -31 -26 -13 -49 28 -33 71 -37 90 -6 23 37 -35 79 -77 55z"/> <path d="M5570 1900 c-16 -26 6 -60 39 -60 29 0 55 49 36 68 -18 19 -61 14 -75 -8z"/> <path d="M295 1741 c-13 -47 8 -66 52 -50 34 14 61 69 34 69 -10 0 -31 5 -47 11 -18 7 -33 -4 -39 -30z"/> <path d="M571 1742 c-16 -26 9 -82 37 -82 37 0 70 42 58 72 -12 31 -78 38 -95 10z"/> <path d="M710 1739 c-8 -12 -5 -32 6 -43 27 -27 90 -4 79 29 -11 33 -68 43 -85 14z"/> <path d="M864 1725 c10 -52 76 -58 76 -6 0 28 -13 41 -41 41 -29 0 -40 -11 -35 -35z"/> <path d="M5649 1738 c-21 -33 26 -71 53 -44 23 23 9 66 -22 66 -10 0 -24 -10 -31 -22z"/> <path d="M5809 1738 c-21 -33 26 -71 53 -44 23 23 9 66 -22 66 -10 0 -24 -10 -31 -22z"/> <path d="M5490 1720 c-15 -25 40 -49 69 -30 12 7 16 21 10 31 -15 25 -63 24 -79 -1z"/> <path d="M203 1666 c-30 -6 -42 -19 -35 -38 7 -19 -4 -28 -39 -28 -35 0 -49 -11 -49 -38 0 -21 -19 -43 -45 -51 -38 -12 -23 -40 17 -31 7 2 30 -22 50 -53 21 -32 38 -45 38 -31 0 15 -14 40 -30 57 -42 42 -38 53 30 94 58 34 60 34 60 -5 0 -61 102 -163 152 -150 24 6 52 -2 67 -21 14 -17 35 -31 47 -31 12 0 2 18 -22 41 -24 22 -44 49 -44 60 0 10 -13 19 -30 19 -16 0 -30 10 -30 21 0 12 -9 16 -20 9 -20 -12 -120 81 -120 113 0 28 85 19 121 -14 30 -27 36 -27 59 0 21 27 17 31 -28 31 -29 0 -58 14 -65 30 -6 17 -17 29 -24 27 -7 -1 -34 -6 -60 -11z"/> <path d="M515 1597 c-43 -23 -45 -69 -5 -84 40 -16 90 5 90 37 0 43 -47 69 -85 47z"/> <path d="M5893 1607 c-24 -24 -14 -82 17 -94 32 -13 70 42 56 82 -10 27 -51 33 -73 12z"/> <path d="M654 1587 c-31 -31 -13 -70 31 -63 25 3 45 19 45 36 0 32 -53 51 -76 27z"/> <path d="M789 1578 c-19 -30 22 -66 59 -51 18 6 26 24 20 42 -14 36 -59 41 -79 9z"/> <path d="M5419 1568 c-22 -26 -21 -34 2 -49 44 -28 59 -23 59 20 0 53 -30 67 -61 29z"/> <path d="M862 1433 c-34 -42 26 -88 68 -53 30 25 9 80 -30 80 -8 0 -25 -12 -38 -27z"/> <path d="M580 1400 c0 -33 10 -41 45 -36 25 3 45 20 45 36 0 17 -20 33 -45 36 -35 5 -45 -3 -45 -36z"/> <path d="M713 1412 c-11 -30 38 -60 69 -41 10 6 18 24 18 40 0 37 -72 38 -87 1z"/> <path d="M5640 1400 c0 -42 16 -48 67 -28 41 15 18 68 -29 68 -25 0 -38 -14 -38 -40z"/> <path d="M148 1323 c6 -9 -15 -15 -45 -13 -50 3 -54 -2 -47 -53 8 -53 44 -83 44 -37 0 11 12 20 26 20 14 0 36 10 48 22 25 25 13 78 -17 78 -11 0 -15 -8 -9 -17z"/> <path d="M494 1261 c-14 -54 36 -94 76 -61 39 32 38 73 -2 88 -50 19 -63 15 -74 -27z"/> <path d="M650 1280 c-17 -27 6 -60 40 -60 41 0 59 42 28 62 -37 23 -53 22 -68 -2z"/> <path d="M791 1281 c-20 -31 6 -61 52 -61 27 0 38 11 33 35 -7 40 -66 58 -85 26z"/> <path d="M920 1272 c0 -53 55 -79 78 -36 11 21 15 44 8 51 -24 24 -86 13 -86 -15z"/> <path d="M5747 1277 c-41 -51 -25 -100 31 -93 55 6 87 76 35 76 -16 0 -33 10 -37 22 -5 15 -15 13 -29 -5z"/> <path d="M5900 1280 c0 -11 10 -20 23 -20 12 0 35 -16 49 -35 25 -33 27 -32 27 8 1 23 -13 48 -31 55 -45 17 -68 15 -68 -8z"/> <path d="M5569 1259 c-26 -42 36 -87 65 -47 21 28 21 39 1 52 -34 21 -50 20 -66 -5z"/> <path d="M201 1216 c-1 -19 17 -44 39 -56 49 -26 51 -55 5 -106 -27 -30 -28 -37 -5 -27 17 7 46 19 65 25 19 7 35 22 35 32 0 11 14 15 30 9 33 -13 38 3 12 44 -9 15 -34 24 -54 20 -22 -5 -57 14 -82 43 -36 40 -45 43 -45 16z"/> <path d="M1013 1146 c-24 -24 -13 -86 15 -86 53 0 79 55 36 78 -21 11 -44 15 -51 8z"/> <path d="M1144 1134 c-29 -34 3 -83 44 -68 39 15 43 94 4 94 -15 0 -37 -12 -48 -26z"/> <path d="M5801 1126 c-20 -13 -61 -22 -92 -20 -77 5 -87 -49 -17 -95 29 -19 47 -25 39 -13 -19 32 13 27 65 -9 52 -37 59 -124 11 -143 -21 -8 -46 3 -68 31 -46 56 -62 55 -40 -4 15 -40 10 -51 -27 -69 -59 -26 -58 -82 1 -109 52 -24 60 -46 22 -62 -19 -7 -19 -10 1 -11 15 -1 44 7 65 18 30 17 43 13 62 -17 23 -38 25 -38 59 4 30 37 41 39 77 18 36 -22 41 -21 41 15 0 22 -9 40 -20 40 -11 0 -20 18 -20 40 0 22 9 40 20 40 11 0 20 29 19 65 0 54 -4 59 -21 30 -27 -47 -72 -44 -99 6 -16 31 -16 49 2 70 29 36 92 38 106 4 6 -15 10 -12 11 9 1 18 -7 39 -18 46 -11 7 -20 30 -20 51 0 22 9 39 20 39 11 0 20 12 20 27 0 35 -149 34 -199 -1z m99 -36 c31 -38 -5 -90 -63 -90 -48 0 -69 51 -37 90 32 38 68 38 100 0z m8 -323 c17 -44 -25 -90 -76 -83 -49 7 -68 73 -29 98 43 28 92 21 105 -15z"/> <path d="M567 1110 c-19 -50 21 -78 72 -50 52 28 44 68 -16 76 -26 4 -48 -6 -56 -26z"/> <path d="M720 1101 c0 -28 13 -41 41 -41 29 0 40 11 35 35 -10 52 -76 58 -76 6z"/> <path d="M867 1109 c-7 -17 -7 -36 0 -42 20 -21 73 10 73 42 0 40 -58 40 -73 0z"/> <path d="M4999 1078 c-18 -33 -17 -49 4 -70 23 -23 28 -16 29 42 1 82 -3 85 -33 28z"/> <path d="M5340 1104 c-46 -21 -46 -78 -1 -90 47 -12 90 33 74 76 -13 32 -26 35 -73 14z"/> <path d="M100 984 c-37 -17 -45 -84 -10 -84 14 0 36 14 50 30 21 25 31 26 56 5 27 -22 28 -20 7 20 -25 46 -50 53 -103 29z"/> <path d="M504 976 c-31 -31 -30 -53 4 -87 23 -23 32 -22 60 8 41 46 41 75 0 91 -40 15 -36 16 -64 -12z"/> <path d="M942 973 c-17 -21 -16 -33 5 -51 21 -17 33 -16 51 5 17 21 16 33 -5 51 -21 17 -33 16 -51 -5z"/> <path d="M1073 971 c-17 -44 36 -78 66 -42 13 16 19 39 12 50 -19 30 -65 26 -78 -8z"/> <path d="M1207 969 c-15 -38 21 -79 51 -60 33 20 26 91 -9 91 -16 0 -36 -14 -42 -31z"/> <path d="M650 959 c-8 -12 -5 -32 6 -43 27 -27 90 -4 79 29 -11 33 -68 43 -85 14z"/> <path d="M793 967 c-22 -23 -15 -42 20 -56 34 -13 72 24 55 53 -12 19 -56 21 -75 3z"/> <path d="M5256 922 c-30 -36 -29 -39 21 -48 59 -12 92 21 59 60 -28 35 -41 33 -80 -12z"/> <path d="M5560 935 c1 -56 31 -76 69 -48 21 15 31 37 23 50 -19 31 -92 29 -92 -2z"/> <path d="M5389 918 c-19 -30 22 -66 60 -51 17 6 31 26 31 42 0 35 -71 42 -91 9z"/> <path d="M308 845 c-52 -36 -88 -145 -47 -145 22 0 34 10 28 26 -13 32 87 42 123 12 57 -47 64 -5 10 57 -59 67 -77 75 -114 50z"/> <path d="M573 827 c-47 -48 25 -110 78 -67 22 19 24 32 7 53 -25 29 -63 35 -85 14z"/> <path d="M722 813 c-17 -21 -15 -34 9 -53 38 -32 80 1 62 49 -15 38 -41 40 -71 4z"/> <path d="M853 827 c-45 -46 30 -106 80 -65 21 18 22 30 5 51 -25 29 -63 35 -85 14z"/> <path d="M3669 771 c-56 -84 -22 -97 61 -23 l80 70 -55 1 c-36 1 -65 -15 -86 -48z"/> <path d="M5179 749 c-12 -15 -17 -36 -11 -47 7 -10 -10 -36 -37 -57 l-49 -39 58 -2 c37 -1 54 7 49 23 -5 13 11 32 36 43 24 11 48 35 51 52 8 42 -67 63 -97 27z"/> <path d="M5354 767 c-29 -28 -13 -67 27 -67 28 0 40 11 35 33 -7 37 -41 56 -62 34z"/> <path d="M75 650 c-5 -27 -1 -50 9 -50 10 0 13 -8 7 -19 -6 -10 -1 -25 12 -33 14 -9 18 -6 9 9 -8 13 -6 23 4 23 30 0 45 87 18 104 -39 25 -49 19 -59 -34z"/> <path d="M490 660 c-21 -35 11 -100 49 -100 41 0 65 45 48 90 -13 34 -78 41 -97 10z"/> <path d="M1550 564 c113 -208 307 -381 485 -433 78 -23 53 42 -44 113 -49 36 -90 77 -90 91 -1 14 -12 23 -26 20 -14 -3 -25 13 -25 34 0 22 -18 49 -40 60 -72 37 -169 136 -156 159 7 12 5 16 -3 8 -9 -8 -35 -1 -58 15 -83 58 -98 34 -43 -67z"/> <path d="M5955 526 c-40 -44 -46 -97 -13 -117 35 -22 61 21 54 91 -6 63 -7 64 -41 26z"/> <path d="M3355 525 c-19 -4 -35 -21 -35 -36 0 -36 22 -37 69 -2 41 29 21 51 -34 38z"/> <path d="M5840 517 c0 -15 -31 -18 -100 -9 -82 11 -100 8 -100 -17 0 -17 -11 -31 -24 -31 -17 0 -14 -10 6 -31 34 -34 106 -18 91 20 -5 13 3 24 19 24 15 0 33 -17 39 -37 22 -68 99 -38 101 39 1 36 -6 65 -15 65 -9 0 -17 -10 -17 -23z"/> <path d="M5353 485 c-24 -6 -33 -21 -27 -46 5 -20 -1 -41 -13 -46 -15 -7 -14 -10 3 -11 43 -3 104 37 104 68 0 35 -20 45 -67 35z"/> <path d="M5568 291 c-14 -37 6 -71 42 -71 41 0 57 38 29 71 -30 37 -57 37 -71 0z"/> <path d="M5871 302 c-18 -29 10 -82 43 -82 48 0 87 51 61 77 -28 28 -88 30 -104 5z"/> <path d="M5723 267 c9 -44 87 -50 87 -7 0 17 -21 33 -47 37 -36 5 -45 -2 -40 -30z"/> <path d="M2530 209 c-100 -52 -96 -63 17 -48 142 19 196 38 182 60 -18 29 -133 22 -199 -12z"/> <path d="M5809 118 c-17 -28 21 -67 48 -50 23 15 9 72 -18 72 -9 0 -23 -10 -30 -22z"/> </g> </svg> 