<?xml version="1.0" standalone="no"?>
<!DOCTYPE svg PUBLIC "-//W3C//DTD SVG 20010904//EN"
 "http://www.w3.org/TR/2001/REC-SVG-20010904/DTD/svg10.dtd">
<svg version="1.0" xmlns="http://www.w3.org/2000/svg"
 width="450.000000pt" height="450.000000pt" viewBox="0 0 450.000000 450.000000"
 preserveAspectRatio="xMidYMid meet">
<metadata>
Created by potrace 1.10, written by Peter Selinger 2001-2011
</metadata>
<g transform="translate(0.000000,450.000000) scale(0.100000,-0.100000)"
fill="#ffffff" stroke="none">
<path d="M1425 4482 c-72 -31 -180 -87 -183 -94 -2 -5 -8 -8 -13 -8 -6 0 -37
-18 -70 -40 -33 -22 -64 -40 -68 -40 -3 0 -45 -36 -93 -80 -47 -43 -88 -77
-92 -75 -3 3 -4 2 -1 -2 3 -4 -10 -23 -29 -42 -19 -20 -45 -53 -59 -73 -13
-20 -28 -34 -32 -30 -5 4 -6 2 -2 -4 13 -22 -37 -65 -83 -72 l-45 -7 48 -5 49
-5 -24 -35 c-13 -19 -38 -42 -56 -52 -20 -9 -29 -19 -22 -23 12 -7 8 -25 -23
-93 -11 -26 -22 -51 -23 -57 -2 -5 -15 -44 -30 -85 -14 -41 -28 -88 -31 -105
-2 -16 -11 -54 -19 -84 -9 -30 -18 -79 -20 -110 -8 -88 -8 -393 0 -428 4 -19
3 -34 -3 -38 -8 -4 -8 -12 -1 -25 13 -24 13 -167 0 -175 -14 -9 -13 -26 2 -23
19 5 28 -62 14 -103 -7 -21 -34 -66 -58 -101 -47 -65 -197 -216 -236 -237 -12
-6 -22 -18 -22 -27 0 -8 -8 -31 -19 -52 -27 -54 -33 -98 -16 -112 8 -7 20 -31
27 -54 7 -22 17 -45 24 -51 6 -5 37 -43 68 -82 31 -40 65 -77 75 -83 10 -5 24
-23 29 -40 8 -21 18 -30 32 -30 12 0 36 -11 54 -25 18 -14 38 -25 44 -25 7 0
11 -5 10 -12 -2 -7 2 -12 7 -13 6 0 21 -7 33 -14 33 -18 36 -9 14 36 -11 21
-23 54 -27 73 -4 19 -11 40 -15 45 -15 19 -22 140 -10 170 l12 30 10 -25 c5
-14 7 -43 4 -64 -3 -31 0 -44 14 -56 11 -9 24 -36 29 -60 5 -24 17 -47 25 -52
25 -14 47 -63 34 -76 -13 -13 -1 -33 17 -26 7 3 23 0 35 -6 16 -8 13 0 -14 35
-86 112 -136 267 -136 420 0 46 -4 86 -8 89 -15 9 -34 -95 -39 -209 -6 -120
11 -211 49 -272 11 -18 16 -33 12 -33 -4 0 -39 21 -78 47 -138 93 -259 235
-306 360 l-21 55 22 45 c12 24 77 102 144 173 168 177 240 298 301 505 25 88
58 270 51 289 -7 17 -12 -6 -32 -129 -16 -105 -68 -283 -98 -342 l-15 -28 -5
45 c-3 25 -11 140 -17 255 -25 472 31 733 234 1085 140 244 405 464 699 584
41 17 54 25 37 25 -14 0 -43 -8 -65 -17z m-875 -2579 c0 -7 -4 -13 -10 -13 -5
0 -10 12 -10 28 0 21 2 24 10 12 5 -8 10 -21 10 -27z"/>
<path d="M3005 4477 c440 -193 837 -695 968 -1222 37 -146 47 -228 47 -378 0
-136 -18 -278 -46 -352 -14 -38 -14 -36 -8 63 6 105 -2 205 -37 429 -10 67
-16 137 -13 155 4 22 2 28 -4 20 -6 -9 -9 1 -9 31 -1 53 -51 230 -100 351 -97
244 -343 549 -553 686 -117 76 -288 160 -395 193 -88 27 -163 41 -149 28 10
-9 98 -39 129 -44 11 -1 25 -5 30 -8 6 -4 35 -14 65 -24 52 -17 147 -63 235
-116 43 -25 56 -35 86 -61 10 -10 21 -18 24 -18 26 1 285 -249 285 -275 0 -7
4 -15 8 -17 13 -5 92 -114 92 -126 0 -7 4 -12 9 -12 5 0 14 -14 21 -31 7 -17
19 -37 26 -44 40 -39 133 -297 160 -440 22 -121 30 -423 14 -535 -15 -100 -52
-235 -80 -290 l-20 -39 -52 23 c-29 13 -88 40 -132 60 l-78 36 7 33 c66 308
31 781 -82 1087 -37 101 -40 106 -48 98 -3 -3 9 -38 26 -79 116 -280 145 -759
65 -1058 -8 -29 -17 -55 -19 -57 -3 -3 -28 9 -57 26 -28 17 -71 33 -94 36 -35
5 -50 15 -96 67 -42 47 -49 59 -32 55 12 -4 25 -2 28 3 3 5 -13 9 -35 9 -45 0
-48 5 -26 37 8 12 11 23 6 25 -4 2 -11 65 -14 140 l-5 138 39 -20 c21 -11 39
-17 39 -12 0 4 -20 18 -44 30 -43 20 -45 24 -49 69 l-3 48 -2 -47 c-3 -71 -22
-58 -22 15 0 46 3 58 11 47 8 -11 9 -3 5 30 -23 204 -31 256 -40 263 -8 5 -6
10 4 17 11 7 12 10 2 10 -9 0 -11 7 -7 23 4 15 3 18 -3 9 -6 -9 -16 13 -33 70
-13 46 -24 88 -24 93 0 6 -3 12 -6 15 -4 3 -9 16 -13 30 -6 19 -5 21 3 10 16
-23 13 3 -5 50 -9 23 -21 37 -27 33 -6 -3 -7 -1 -3 5 7 11 -52 138 -60 129 -3
-2 13 -51 34 -108 105 -281 141 -434 149 -633 6 -145 6 -148 -14 -142 -56 18
-165 36 -219 36 l-60 0 -18 98 c-21 115 -58 253 -91 337 -12 33 -26 69 -29 79
-13 38 -14 8 -6 -119 5 -72 9 -194 9 -272 l0 -143 -24 0 c-13 0 -27 -5 -31
-11 -4 -8 3 -9 25 -4 31 7 31 6 31 -35 0 -22 -7 -57 -15 -77 -18 -42 -18 -46
-5 -38 12 7 12 -38 0 -75 -11 -35 -11 -36 -29 105 -19 147 -41 300 -46 325 -3
14 -14 77 -26 140 -21 116 -42 221 -59 295 -5 22 -19 81 -31 130 -21 92 -88
309 -93 303 -2 -1 -6 -86 -10 -188 -4 -102 -8 -201 -10 -220 -2 -19 -5 -66 -6
-105 -3 -83 -36 -414 -44 -435 -4 -8 -8 -28 -10 -45 -10 -76 -47 -267 -57
-292 -6 -15 -13 -44 -16 -63 -3 -19 -19 -73 -35 -120 -16 -47 -32 -95 -35
-107 -3 -13 -9 -23 -14 -23 -5 0 -8 -5 -7 -12 3 -14 -34 -34 -77 -42 -16 -3
-42 -8 -57 -12 -28 -6 -28 -6 -28 46 l0 52 45 -26 c25 -15 45 -24 45 -21 0 9
-32 58 -54 82 -25 29 -13 42 16 17 20 -17 21 -17 9 -1 -19 24 -57 45 -46 25 5
-7 4 -9 0 -5 -5 4 -10 14 -11 23 -2 12 5 14 29 10 29 -5 30 -5 7 4 l-25 10 2
162 c1 202 0 188 18 182 8 -4 15 -1 15 5 0 6 -7 11 -15 11 -10 0 -15 10 -15
30 0 24 4 30 23 30 20 1 21 1 4 11 -17 10 -18 20 -12 83 3 39 8 83 11 99 3 15
1 27 -4 27 -5 0 -12 -37 -16 -82 -10 -117 -10 -118 -49 -107 -17 5 -93 9 -167
9 -120 0 -188 -9 -292 -35 -32 -8 -38 8 -13 35 13 15 95 345 95 383 0 43 -46
-102 -75 -234 -2 -9 -8 -34 -14 -55 -6 -21 -8 -40 -6 -43 3 -2 0 -10 -6 -18
-7 -7 -15 -28 -18 -46 -6 -27 -13 -34 -51 -47 -26 -8 -38 -16 -28 -18 9 -2 27
2 38 8 12 6 23 10 25 8 4 -4 -52 -275 -64 -310 -7 -19 -7 -28 0 -28 18 0 -3
-44 -36 -75 -140 -132 -156 -144 -193 -138 -25 4 -33 3 -28 -5 4 -7 20 -12 36
-12 50 0 117 -112 81 -135 -5 -3 -12 5 -14 17 -2 13 -5 -12 -6 -54 0 -46 3
-78 9 -78 6 0 10 -5 10 -11 0 -12 -178 -8 -374 8 l-79 6 6 381 c3 214 13 447
21 531 16 158 44 364 52 377 3 4 1 8 -4 8 -14 0 -19 -27 -41 -201 -29 -228
-40 -399 -47 -749 -6 -289 -8 -316 -25 -333 -11 -10 -19 -21 -20 -25 0 -4 -2
-16 -4 -27 -2 -11 3 -44 12 -72 15 -49 15 -54 0 -71 -9 -10 -17 -22 -17 -26 0
-5 9 2 19 15 31 38 40 14 46 -121 3 -69 8 -149 11 -178 3 -31 1 -52 -4 -52
-12 0 -69 154 -78 210 -4 22 -10 40 -15 40 -11 0 -1 -51 24 -120 15 -43 20
-85 22 -195 2 -151 10 -205 28 -205 31 -1 39 -20 44 -104 4 -75 3 -86 -11 -86
-24 0 -20 -37 5 -43 20 -5 21 -11 17 -62 -3 -31 -1 -58 4 -61 4 -3 8 -27 8
-53 0 -50 11 -66 73 -105 16 -10 26 -20 23 -23 -3 -3 -1 -14 5 -24 7 -13 17
-18 32 -14 13 3 42 -5 71 -20 65 -33 96 -33 96 0 0 14 4 25 9 25 18 0 41 -44
41 -76 0 -34 22 -55 70 -67 14 -4 31 -11 38 -15 15 -10 5 -43 -12 -36 -11 4
-64 -53 -101 -109 -15 -23 -22 -27 -49 -22 -26 5 -33 2 -41 -17 -6 -14 -25
-28 -50 -36 -22 -7 -47 -15 -55 -19 -8 -3 -21 -7 -28 -9 -7 -1 -24 -9 -37 -18
-13 -9 -37 -16 -53 -16 -16 0 -37 -9 -47 -20 -21 -23 -69 -24 -71 -2 -3 24 -4
26 -16 14 -9 -9 -8 -16 5 -30 17 -18 16 -20 -30 -37 -27 -10 -53 -22 -59 -27
-7 -5 -28 -10 -49 -12 -20 -1 -40 -7 -43 -12 -4 -5 -17 -15 -30 -22 -19 -11
-25 -10 -38 3 -21 21 -27 19 -14 -5 6 -11 7 -19 3 -18 -4 1 -31 -10 -60 -25
-29 -15 -59 -27 -67 -27 -8 0 -39 -13 -70 -30 -31 -16 -58 -30 -61 -30 -9 -2
-100 -41 -117 -50 -10 -6 -24 -10 -31 -10 -19 0 -57 -43 -57 -65 0 -17 2 -17
23 3 25 23 406 188 947 409 102 41 193 82 203 91 10 9 25 31 32 49 17 39 33
47 79 39 30 -6 52 -29 167 -173 73 -91 158 -193 188 -225 l55 -60 -32 -58
c-25 -45 -32 -69 -32 -114 0 -53 1 -56 25 -56 19 0 25 5 25 22 0 13 21 53 47
90 36 53 49 65 60 57 10 -9 19 3 45 57 26 57 53 90 152 189 145 144 223 190
255 151 14 -17 10 -35 -46 -216 -38 -125 -110 -317 -126 -338 -7 -9 -4 -12 9
-12 14 0 25 16 41 58 11 31 24 69 27 85 4 15 11 27 16 27 14 0 13 -8 -15 -90
-28 -84 -28 -80 -17 -80 5 0 19 37 32 83 12 45 27 86 31 91 18 20 20 -5 8 -83
-11 -73 -9 -104 6 -89 3 3 15 63 25 134 32 209 62 364 70 364 23 0 41 -41 70
-162 84 -359 82 -349 97 -335 3 4 -1 35 -11 68 -9 34 -15 63 -13 66 3 2 7 -7
11 -21 9 -38 46 -119 51 -114 3 2 -13 53 -35 113 -21 60 -38 110 -37 112 2 1
27 -49 57 -112 30 -63 60 -115 67 -115 18 0 18 1 -28 93 -61 121 -180 419
-177 442 4 29 65 42 120 26 32 -10 66 -36 130 -99 48 -47 90 -97 93 -111 8
-33 60 -140 80 -166 16 -20 16 -20 34 3 l17 23 56 -83 c30 -46 61 -93 67 -105
10 -20 51 -34 51 -18 0 17 -65 144 -104 205 l-47 71 45 112 c24 62 49 131 56
155 7 23 14 42 16 42 2 0 38 -16 81 -36 43 -20 134 -61 203 -91 69 -31 166
-75 215 -97 50 -23 180 -79 290 -125 110 -45 212 -93 227 -106 15 -13 39 -49
52 -79 14 -31 30 -56 35 -56 14 0 14 8 -3 64 -8 26 -28 61 -45 78 -17 18 -29
38 -27 45 5 13 -5 17 -36 14 -9 -1 -36 7 -59 18 -24 12 -48 21 -53 21 -6 0
-23 6 -38 14 -14 8 -43 19 -64 26 -21 7 -45 19 -52 27 -12 12 -34 17 -54 14
-5 0 -8 4 -8 9 0 5 -3 9 -7 8 -5 -1 -35 11 -68 27 -33 15 -67 29 -76 31 -9 2
-41 15 -70 30 -30 14 -67 32 -84 39 -16 8 -69 32 -117 54 -49 22 -112 50 -140
62 -88 35 -98 42 -98 61 0 10 -11 23 -24 28 -31 11 -46 39 -46 84 0 30 -4 36
-20 36 -27 0 -53 56 -39 83 12 21 4 37 -20 37 -10 0 -24 12 -31 28 -8 15 -16
31 -19 36 -2 5 1 6 7 2 8 -5 12 2 12 20 0 22 -4 25 -20 21 -29 -7 -80 21 -91
50 -15 41 -10 128 10 177 18 41 70 85 94 78 4 -1 7 2 7 8 0 5 9 10 20 10 17 0
19 -4 14 -28 -10 -41 -21 -57 -40 -57 -9 0 -19 -6 -21 -12 -3 -7 3 -13 12 -13
13 0 15 -6 10 -30 -13 -58 4 -29 30 53 41 127 44 132 78 146 18 8 34 14 37 15
3 1 23 12 45 26 22 14 45 26 50 29 18 7 66 65 76 93 6 15 24 32 42 39 17 7 62
42 99 77 37 36 68 62 68 60 0 -27 -71 -185 -101 -226 -22 -29 -37 -57 -34 -62
4 -6 3 -9 -2 -8 -4 2 -47 -36 -94 -83 -47 -48 -125 -113 -173 -144 -48 -31
-85 -59 -82 -62 3 -3 38 17 78 43 46 31 81 47 96 45 18 -2 23 2 20 16 -2 12
24 45 74 96 l76 78 -18 -58 c-10 -32 -14 -60 -9 -61 19 -7 97 40 150 90 30 28
86 76 124 106 39 31 86 70 105 87 32 29 91 54 164 70 l29 6 -6 -83 c-3 -46 -9
-94 -13 -107 -6 -21 -3 -21 44 13 80 58 191 176 222 237 37 71 44 115 30 170
-15 54 -128 294 -136 287 -3 -3 13 -42 36 -87 96 -190 110 -268 63 -360 -26
-54 -147 -185 -212 -230 l-33 -24 5 29 c3 16 9 61 12 99 6 66 9 71 38 85 38
18 54 69 63 212 4 54 10 96 13 94 3 -2 5 100 3 228 -2 211 -1 237 18 296 24
74 49 211 52 276 1 42 17 64 19 27 0 -10 4 -31 7 -48 9 -42 9 -291 -1 -342 -4
-24 -4 -43 1 -43 11 0 80 214 93 290 16 98 14 444 -2 434 -4 -2 -7 11 -7 29 0
17 -7 59 -15 92 -17 69 -20 80 -56 168 -6 16 -9 33 -5 38 3 6 -5 27 -18 47
-14 20 -28 51 -32 67 -4 17 -19 50 -34 75 -15 25 -27 47 -27 50 -2 17 -89 160
-97 160 -6 0 -7 8 -4 17 4 10 4 14 0 10 -4 -3 -19 13 -34 36 -14 23 -34 50
-44 60 -10 9 -15 17 -12 17 3 0 -2 8 -11 19 -50 52 -71 78 -82 99 -7 13 -15
21 -18 19 -6 -6 -41 22 -108 87 -112 109 -388 286 -444 286 -21 -1 -16 -5 24
-23z m-589 -489 c71 -279 143 -662 183 -988 32 -256 36 -320 21 -320 -7 0 -11
-2 -8 -5 15 -15 38 10 38 41 0 31 6 38 55 69 30 19 59 35 65 35 5 0 10 4 10
10 0 13 -43 -4 -82 -31 -16 -12 -31 -19 -33 -17 -2 2 0 33 5 68 5 36 10 91 10
122 l0 57 55 12 c30 7 57 10 59 8 6 -5 26 -227 26 -280 l0 -35 -62 -12 c-67
-12 -69 -14 -159 -125 -21 -27 -39 -53 -39 -58 0 -5 25 7 56 27 31 20 58 33
61 31 2 -3 -2 -18 -10 -34 -35 -67 -44 -209 -17 -252 11 -19 27 -6 35 27 8 35
36 71 42 55 9 -26 47 -65 70 -74 29 -11 65 6 107 49 26 29 30 30 51 16 41 -27
56 -88 34 -137 -9 -19 -23 -27 -63 -34 l-51 -10 51 -2 c59 -1 72 9 103 82 39
90 37 238 -4 320 -22 44 -20 47 36 47 55 0 61 -5 173 -138 l35 -43 -25 -56
c-13 -31 -23 -61 -21 -66 1 -5 27 23 57 62 48 64 83 92 96 78 3 -3 -28 -117
-69 -253 -41 -137 -89 -304 -107 -371 l-34 -123 -86 -85 c-48 -46 -85 -86 -83
-89 2 -2 22 0 45 6 153 34 -65 -110 -627 -414 -117 -63 -163 -54 -443 86 -84
42 -155 76 -157 76 -38 0 248 -148 388 -200 52 -20 67 -21 168 -13 60 5 112 7
115 4 2 -2 4 -34 4 -70 0 -62 -2 -68 -34 -99 -23 -22 -53 -76 -93 -168 l-58
-135 -19 43 c-59 138 -101 225 -115 239 -19 21 -131 58 -308 105 -72 18 -134
34 -136 34 -3 0 -8 48 -12 108 -3 59 -8 131 -9 161 l-4 53 -81 43 c-158 85
-217 139 -290 264 -24 40 -45 70 -48 68 -2 -3 3 -17 13 -31 21 -33 12 -44 -14
-18 -17 17 -21 39 -27 143 -9 170 -13 609 -6 613 3 2 17 -11 31 -30 44 -58 50
-45 16 31 l-34 73 34 33 c18 18 36 31 38 28 3 -3 1 -34 -4 -69 -16 -109 -19
-104 53 -97 34 3 70 9 79 12 13 5 18 -4 28 -49 9 -45 15 -56 31 -56 13 0 19 7
19 23 0 24 35 87 48 87 5 0 15 -11 22 -25 8 -14 29 -35 47 -46 41 -26 73 -20
126 22 20 17 41 28 46 25 18 -12 33 -67 27 -100 -11 -57 -36 -79 -97 -87 l-54
-6 61 -2 c59 -1 63 1 93 34 17 19 38 61 48 93 21 70 24 226 5 260 -17 30 -10
37 17 20 20 -12 21 -19 15 -81 -7 -68 -7 -68 17 -63 13 3 59 13 101 22 l78 16
39 121 c122 377 191 845 191 1304 0 97 3 174 6 171 3 -4 21 -66 40 -140z m304
-532 c43 -160 69 -306 56 -306 -6 0 -27 -3 -47 -6 l-36 -6 -6 178 c-4 99 -9
206 -12 239 -7 78 5 51 45 -99z m-767 -281 c12 -5 17 -16 15 -34 -3 -26 -3
-26 -80 -23 -52 3 -78 0 -78 -7 0 -7 28 -11 76 -11 l77 0 -7 -49 c-4 -27 -3
-52 1 -54 5 -3 5 -56 2 -119 -4 -62 -5 -116 -2 -120 2 -5 -7 -8 -20 -8 -20 0
-23 4 -19 30 2 17 10 30 18 30 11 0 12 5 5 18 -6 11 -6 37 1 70 5 30 8 61 6
70 -2 9 -10 -13 -17 -50 -7 -38 -18 -68 -24 -68 -7 0 -8 -3 -1 -10 12 -12 6
-80 -8 -80 -5 0 -62 9 -126 20 -101 17 -306 40 -352 40 -12 0 -12 -2 -1 -9 10
-7 8 -12 -10 -25 -30 -21 -38 -20 -33 2 2 9 17 89 34 177 17 87 36 165 41 172
10 11 55 23 168 44 54 9 308 5 334 -6z m1075 -61 l73 -16 -6 -56 c-4 -31 -13
-88 -21 -127 -8 -38 -14 -73 -14 -76 0 -4 -42 -5 -92 -3 l-93 3 80 -10 c106
-12 104 -12 96 -51 l-7 -33 -103 0 -103 0 -4 120 c-2 66 -8 135 -13 153 -10
32 -10 32 26 32 20 0 33 3 29 7 -4 4 -19 7 -33 8 -22 0 -28 6 -34 32 -4 20 -2
34 5 37 17 8 133 -3 214 -20z m-238 -9 c0 -14 0 -28 -1 -32 0 -5 -23 -13 -50
-19 l-49 -11 0 43 0 44 50 0 c47 0 50 -2 50 -25z m351 -156 c4 -74 5 -136 4
-137 -2 -2 -18 -1 -35 3 -29 6 -32 10 -26 39 3 17 11 77 18 134 7 62 16 101
23 99 6 -2 13 -59 16 -138z m-13 -149 c7 0 12 -13 12 -30 0 -28 -2 -30 -40
-30 -42 0 -45 5 -33 48 4 18 11 22 27 18 11 -3 27 -6 34 -6z m-1528 -15 c41
-4 84 -9 95 -12 11 -3 31 -7 45 -8 14 -2 35 -6 47 -9 11 -2 42 -8 68 -12 41
-6 46 -9 41 -28 -3 -11 -6 -27 -6 -35 0 -9 -6 -11 -17 -6 -10 4 -27 9 -38 11
-11 2 -38 8 -60 13 -106 26 -300 29 -346 6 -16 -9 -29 -19 -29 -24 0 -5 -9
-11 -20 -14 -16 -4 -20 0 -20 22 0 57 69 113 130 106 19 -2 69 -7 110 -10z
m1931 -165 l-18 -105 61 -29 c34 -16 92 -44 130 -63 39 -18 76 -33 83 -33 7 0
19 12 27 28 14 25 15 21 15 -78 0 -268 -26 -586 -51 -617 -12 -15 -261 -98
-353 -118 -39 -8 -90 -15 -114 -15 -37 0 -42 2 -36 18 25 57 65 169 65 178 0
6 9 23 20 37 11 14 20 31 20 37 0 7 -12 -5 -26 -26 -34 -51 -93 -123 -124
-153 -57 -55 -150 -100 -150 -73 0 4 19 26 43 48 24 22 50 56 59 75 9 19 37
70 63 114 59 104 100 233 120 381 30 224 34 249 50 281 14 28 20 31 44 27 27
-6 30 -3 44 42 9 27 21 76 26 108 6 33 12 62 12 65 1 3 3 -1 5 -9 2 -8 -4 -62
-15 -120z m-1581 55 c0 -18 -4 -21 -25 -17 -26 5 -29 12 -19 50 6 22 8 22 25
6 11 -9 19 -27 19 -39z m1029 28 c48 -13 55 -13 63 1 5 8 17 13 29 11 11 -2
30 0 43 4 19 8 22 6 24 -19 2 -27 1 -27 -46 -22 -32 3 -59 -1 -79 -11 -20 -11
-62 -16 -128 -18 -54 -1 -114 -6 -134 -11 -57 -15 -97 -20 -86 -11 6 4 15 17
21 28 7 13 30 24 66 32 30 7 67 19 83 27 30 16 55 14 144 -11z m51 13 c0 -12
-6 -13 -30 -5 -16 6 -30 13 -30 15 0 2 14 4 30 4 20 0 30 -5 30 -14z m-1684
-51 c-6 -29 -43 -72 -53 -61 -5 5 26 88 39 104 16 19 22 1 14 -43z m1890 -32
c-1 -2 -20 3 -42 10 -34 12 -39 18 -42 48 l-3 34 45 -44 c25 -25 44 -46 42
-48z m-1702 42 c-36 -47 -53 -99 -54 -162 l0 -53 -42 -1 c-24 0 -55 -3 -69 -5
-23 -4 -26 -1 -24 23 1 16 3 53 3 84 2 54 4 58 49 95 42 35 79 48 146 53 15 1
14 -4 -9 -34z m267 0 c35 -9 68 -21 73 -25 6 -6 3 -24 -7 -47 -8 -21 -18 -50
-21 -65 -4 -16 -12 -28 -19 -28 -6 0 -29 -5 -49 -11 -32 -8 -36 -12 -25 -24
10 -12 14 -12 23 1 17 22 58 17 88 -11 36 -33 25 -49 -19 -28 -33 16 -36 15
-55 -2 -18 -16 -20 -16 -20 -2 0 23 -8 21 -29 -4 -14 -17 -20 -19 -45 -10 -19
8 -26 16 -22 26 3 8 9 22 13 32 4 11 3 14 -5 9 -16 -9 -15 9 1 37 25 44 38 46
72 10 18 -20 25 -24 25 -12 0 22 -38 69 -56 69 -22 0 -61 -46 -67 -79 -6 -30
-9 -31 -119 -47 l-48 -6 0 30 c0 59 22 131 52 173 l30 42 83 -6 c45 -3 111
-13 146 -22z m-516 -48 c-19 -46 -35 -56 -35 -21 0 27 42 84 48 66 1 -4 -4
-25 -13 -45z m1583 -20 c2 -15 -1 -27 -7 -27 -5 0 -34 -22 -64 -50 -30 -27
-62 -50 -70 -50 -41 0 -63 74 -34 113 11 16 125 48 157 44 8 -1 16 -14 18 -30z
m78 17 c-17 -16 -17 -18 -19 -58 -1 -26 33 -109 41 -101 9 9 52 -38 52 -56 0
-29 -18 -31 -50 -8 l-30 23 -31 -23 -32 -24 7 27 c9 35 0 33 -19 -4 -22 -42
-52 -40 -71 5 -22 53 -18 66 42 129 43 45 55 65 51 83 -4 21 -1 23 35 23 36 0
38 -1 24 -16z m314 -21 c10 -11 21 -73 14 -73 -4 0 -31 25 -61 55 l-55 55 48
-15 c26 -8 50 -18 54 -22z m-2021 -28 c-3 -47 -13 -59 -24 -25 -3 11 -10 20
-15 20 -7 0 30 49 38 50 2 0 2 -20 1 -45z m1771 13 c25 -41 28 -118 5 -118
-22 0 -55 60 -55 101 0 59 20 66 50 17z m-1107 -40 c-2 -44 -14 -65 -32 -54
-14 9 -14 30 0 80 14 50 34 33 32 -26z m1448 35 c49 -18 57 -30 43 -67 -3 -9
-17 -16 -30 -16 -18 0 -29 11 -49 50 -14 28 -22 50 -19 50 3 0 28 -8 55 -17z
m-555 -215 c21 -39 12 -35 -34 13 -35 37 -41 40 -61 29 -30 -15 -35 -9 -27 34
6 32 9 34 30 26 17 -6 30 -5 42 5 18 13 20 10 27 -33 4 -26 14 -59 23 -74z
m-1142 96 c8 -3 12 -12 10 -19 -3 -7 0 -24 6 -37 10 -20 8 -20 -14 5 -14 15
-26 35 -26 43 0 16 2 16 24 8z m-899 -186 c-4 -39 -2 -74 4 -92 18 -47 3 -43
-19 5 -24 53 -25 97 -4 127 8 12 17 22 20 22 3 0 3 -28 -1 -62z m2601 -37
c-10 -96 -50 -242 -91 -328 -19 -40 -37 -73 -41 -73 -3 0 -3 8 1 18 4 9 8 26
11 36 2 11 13 47 24 81 11 34 22 70 24 81 2 10 12 45 21 78 9 32 19 66 20 75
2 9 4 17 5 19 2 1 3 5 4 10 1 4 6 22 10 40 13 54 19 36 12 -37z m-2206 43 c71
-7 83 -11 74 -26 -4 -7 -6 -33 -5 -59 l2 -46 -73 5 c-40 2 -76 10 -80 16 -6 8
-10 8 -15 0 -6 -7 -44 -8 -123 -2 -156 12 -157 12 -155 45 1 16 3 41 3 57 l2
29 158 -7 c86 -4 182 -9 212 -12z m-105 -135 c94 -6 173 -13 176 -15 4 -2 7
-45 8 -96 1 -88 4 -138 17 -270 4 -44 2 -58 -8 -58 -14 0 -243 40 -366 64 -40
8 -76 17 -79 20 -4 3 -8 90 -11 192 l-5 186 49 -6 c27 -3 126 -11 219 -17z
m-265 -492 c13 -85 13 -88 -8 -107 l-22 -20 -6 25 c-3 14 -4 40 -1 58 2 17 1
42 -4 55 -5 13 -6 49 -2 80 6 56 7 57 19 27 6 -16 17 -69 24 -118z m280 65 c8
-3 19 -4 23 -3 7 1 104 -13 165 -25 23 -5 23 -7 17 -72 -4 -37 -9 -69 -10 -70
-2 -2 -41 6 -87 18 -46 12 -96 23 -113 26 -16 2 -48 9 -70 14 -87 22 -175 37
-175 31 0 -4 98 -28 218 -55 119 -26 220 -51 223 -54 3 -4 11 -70 18 -147 6
-77 23 -242 38 -368 14 -125 23 -230 19 -234 -4 -4 -35 7 -70 24 -50 25 -64
37 -69 60 -56 261 -97 485 -94 513 2 19 2 26 0 16 -4 -16 -7 -17 -14 -5 -12
19 -11 -49 2 -176 17 -174 27 -310 23 -314 -5 -6 -115 54 -195 105 l-66 43 -7
58 c-3 32 -15 177 -26 323 -11 146 -23 277 -26 292 -12 56 -7 57 133 30 70
-13 135 -27 143 -30z m270 -86 c0 -6 35 -46 78 -88 44 -43 76 -81 73 -85 -3
-3 0 -3 6 1 7 4 31 -6 55 -22 24 -16 62 -37 85 -47 23 -10 40 -22 37 -26 -2
-4 1 -9 8 -11 9 -3 12 -39 13 -124 l0 -119 -55 -3 c-30 -1 -65 -4 -77 -7 -32
-7 -78 -56 -123 -130 -13 -22 -28 -41 -32 -43 -4 -2 -8 -12 -8 -22 0 -21 -34
-45 -50 -35 -16 10 -12 29 20 91 37 72 60 175 60 271 0 99 -20 276 -32 288 -7
7 -8 1 -3 -20 5 -16 10 -68 12 -115 2 -47 5 -112 8 -146 2 -33 -1 -78 -6 -100
-6 -21 -12 -52 -15 -69 -7 -51 -25 -86 -43 -83 -13 3 -15 15 -13 61 1 31 -2
57 -7 57 -6 0 -12 21 -16 48 -3 26 -8 61 -11 78 -3 21 2 38 16 54 21 24 19 40
-5 40 -19 0 -30 45 -19 71 9 19 11 19 54 -15 24 -19 46 -33 48 -31 2 1 -10 29
-27 61 -16 33 -30 53 -31 45 0 -7 10 -30 22 -50 l22 -36 -34 26 c-68 52 -72
62 -64 182 l7 108 23 -22 c13 -13 24 -27 24 -33z m2125 -81 c-33 -30 -64 -55
-68 -55 -15 0 55 91 76 100 51 20 48 6 -8 -45z m-35 30 c0 -3 -12 -24 -26 -48
-55 -87 -231 -238 -242 -207 -6 16 58 161 89 206 31 43 33 43 98 47 36 2 69 4
74 5 4 1 7 0 7 -3z m-755 -430 c0 -63 -2 -115 -5 -115 -3 0 -14 6 -25 13 -17
11 -47 22 -122 43 -8 2 -13 21 -13 49 0 41 2 45 24 45 13 0 29 7 36 15 7 8 16
12 21 9 5 -3 9 0 9 5 0 6 6 11 13 11 8 0 22 9 32 20 10 11 21 20 24 20 3 0 6
-52 6 -115z m-984 -65 c16 0 29 -5 29 -11 0 -13 -86 -3 -110 13 -11 6 -5 8 19
4 18 -3 46 -6 62 -6z m-8 -31 c192 -48 405 -109 450 -128 41 -18 44 -23 110
-167 37 -82 67 -153 67 -157 0 -15 -24 -4 -148 68 -67 39 -122 76 -122 82 0 7
10 37 22 67 20 48 27 56 53 58 l30 4 -28 8 c-17 5 -32 5 -39 -2 -11 -11 -68
-155 -134 -342 l-45 -125 -92 -93 c-50 -50 -95 -91 -98 -90 -8 3 -197 229
-283 338 -33 41 -72 89 -88 106 -25 27 -28 35 -19 53 7 12 18 21 26 21 9 0 15
9 15 22 0 27 179 308 196 308 3 0 60 -14 127 -31z m985 -41 c2 -4 14 -8 26 -8
12 0 30 -6 39 -12 9 -7 53 -87 97 -178 45 -91 93 -180 106 -197 l25 -33 -53
-145 c-29 -79 -55 -145 -58 -145 -3 0 -48 49 -100 109 -52 60 -99 110 -103
110 -4 1 -37 24 -73 51 -44 34 -75 50 -97 51 -40 2 -38 2 -62 -7 -18 -7 -18
-6 -6 9 7 9 17 14 22 11 5 -3 9 1 9 8 0 10 3 9 9 -1 8 -12 20 -8 69 22 33 20
62 37 65 37 3 0 18 -39 33 -87 15 -49 29 -82 31 -76 4 11 -71 262 -97 330 -10
24 -50 51 -50 33 0 -5 5 -10 10 -10 11 0 49 -75 50 -96 0 -6 -39 -44 -87 -85
-124 -105 -128 -108 -141 -100 -9 5 2 39 37 117 95 215 104 226 218 261 71 21
73 23 28 17 -27 -3 -58 -10 -67 -15 -31 -17 -38 -10 -38 40 l0 50 78 -26 c42
-14 79 -30 80 -35z m-1524 -22 l-7 -21 -8 22 c-4 11 -5 31 -2 44 l6 23 9 -24
c5 -12 5 -32 2 -44z m969 -349 c31 -14 57 -28 57 -31 0 -3 -27 -19 -59 -36
-33 -18 -87 -54 -121 -82 -34 -27 -64 -48 -66 -46 -2 2 14 49 35 104 21 54 41
107 44 116 7 20 10 19 110 -25z m357 -46 c0 -5 -16 -11 -36 -13 -32 -4 -34 -3
-18 9 20 15 54 17 54 4z m-189 -69 c-9 -25 -9 -24 -9 16 1 32 4 39 10 27 6 -9
6 -26 -1 -43z m64 17 c1 -25 -4 -36 -15 -36 -20 0 -30 16 -30 50 0 24 4 28 23
25 18 -2 22 -9 22 -39z m-414 -148 c-7 -5 -12 -12 -11 -17 1 -5 -4 -10 -12
-12 -9 -2 -8 0 2 7 8 6 11 11 6 11 -5 0 -3 7 4 15 7 9 15 13 19 10 3 -3 0 -10
-8 -14z m-75 -88 c-3 -10 -16 -29 -28 -43 -13 -14 -35 -41 -49 -60 -36 -48
-90 -103 -95 -97 -5 5 14 59 24 67 4 3 13 17 19 33 7 15 19 27 28 27 8 0 15 3
15 8 0 12 63 77 72 75 4 -2 8 2 8 9 0 6 3 9 6 5 3 -3 3 -14 0 -24z m951 -70
c15 -22 12 -53 -5 -53 -8 0 -82 134 -82 148 1 8 65 -63 87 -95z m-574 5 c-7
-41 -22 -71 -23 -47 0 18 20 79 26 79 2 0 1 -15 -3 -32z m-34 -27 c-7 -23 -14
-39 -16 -37 -3 2 1 23 8 45 7 23 14 39 16 37 3 -2 -1 -23 -8 -45z m-375 -13
c-10 -20 -19 -28 -22 -20 -2 7 4 22 14 33 25 27 27 24 8 -13z"/>
<path d="M1520 2309 c0 -43 61 -80 132 -78 50 1 45 3 -35 19 -51 10 -60 15
-69 41 -10 28 -28 40 -28 18z"/>
<path d="M2660 2280 c0 -5 13 -24 28 -41 22 -25 38 -32 77 -36 37 -3 46 -2 35
6 -8 6 -27 11 -41 11 -30 0 -79 35 -79 56 0 8 -4 14 -10 14 -5 0 -10 -4 -10
-10z"/>
<path d="M3136 2202 c-3 -6 -1 -14 5 -17 15 -10 25 3 12 16 -7 7 -13 7 -17 1z"/>
<path d="M2350 2071 c0 -12 5 -21 10 -21 6 0 10 6 10 14 0 8 -4 18 -10 21 -5
3 -10 -3 -10 -14z"/>
<path d="M1311 1880 c6 -16 15 -32 20 -35 4 -3 3 8 -2 25 -6 16 -15 32 -20 35
-4 3 -3 -8 2 -25z"/>
<path d="M1340 1825 c0 -9 30 -65 35 -65 7 0 -16 60 -26 66 -5 3 -9 2 -9 -1z"/>
<path d="M1380 1744 c0 -3 13 -24 28 -47 16 -23 31 -50 35 -59 3 -9 15 -22 27
-28 15 -8 12 1 -15 36 -20 26 -43 60 -51 75 -13 27 -24 37 -24 23z"/>
<path d="M2140 1641 c0 -5 21 -11 46 -15 65 -8 90 -8 79 3 -13 11 -125 22
-125 12z"/>
<path d="M2340 1630 c-22 -7 -20 -8 15 -9 22 0 47 4 55 9 11 7 8 9 -15 9 -16
-1 -41 -5 -55 -9z"/>
<path d="M1507 1562 c15 -16 30 -27 32 -25 6 4 -41 53 -51 53 -5 0 4 -13 19
-28z"/>
<path d="M1623 2878 c-51 -6 -91 -13 -89 -17 3 -4 31 -4 63 0 32 4 93 8 136 8
49 1 76 5 72 11 -7 12 -53 11 -182 -2z"/>
<path d="M3683 2205 c0 -27 2 -38 4 -22 2 15 2 37 0 50 -2 12 -4 0 -4 -28z"/>
<path d="M3540 2139 c-6 -11 -10 -25 -8 -30 2 -5 8 4 15 21 13 34 9 40 -7 9z"/>
<path d="M3685 2103 c3 -12 2 -30 -4 -40 -5 -10 -14 -54 -20 -98 -6 -44 -13
-91 -17 -105 -13 -56 15 8 34 80 20 71 39 200 26 171 -5 -11 -8 -11 -16 0 -7
10 -8 8 -3 -8z"/>
<path d="M3425 1920 c-9 -16 -13 -30 -11 -30 3 0 12 14 21 30 9 17 13 30 11
30 -3 0 -12 -13 -21 -30z"/>
<path d="M1046 2123 c-11 -11 -7 -335 4 -328 6 3 10 1 10 -6 0 -7 3 -10 6 -7
7 8 13 91 7 101 -3 5 -5 60 -4 122 2 103 -5 136 -23 118z"/>
<path d="M1053 1455 c0 -22 2 -30 4 -17 2 12 2 30 0 40 -3 9 -5 -1 -4 -23z"/>
<path d="M1347 1204 c-8 -8 1 -24 13 -24 4 0 10 7 14 15 5 15 -14 21 -27 9z"/>
<path d="M2797 578 c-73 -61 -107 -100 -69 -79 22 12 159 140 150 141 -3 0
-40 -28 -81 -62z"/>
<path d="M1710 4479 c-248 -48 -537 -207 -732 -402 -134 -135 -256 -320 -317
-482 -54 -144 -100 -365 -115 -555 -7 -99 11 -36 28 100 17 127 20 142 42 238
16 68 39 132 48 132 3 0 3 -6 0 -13 -2 -7 2 -21 11 -32 11 -15 14 -16 9 -3 -7
21 14 124 33 162 8 15 10 25 4 22 -16 -10 -13 16 5 42 8 12 13 22 9 22 -7 0
47 84 58 88 4 2 7 8 7 14 0 11 53 89 77 114 10 10 17 19 16 20 -3 4 70 85 132
146 33 32 89 80 125 106 36 25 71 52 78 59 7 7 17 13 22 13 5 0 28 13 52 28
44 29 197 102 220 106 7 1 19 5 26 10 7 4 55 18 105 31 106 27 154 44 122 43
-11 0 -40 -4 -65 -9z"/>
<path d="M1449 4094 c-116 -265 -199 -700 -216 -1134 -3 -85 -3 -152 1 -149 4
4 11 85 16 180 23 419 92 798 191 1043 40 101 47 149 8 60z"/>
<path d="M2764 3987 c12 -9 19 -32 23 -75 6 -65 23 -76 23 -14 0 40 -32 102
-52 102 -6 0 -4 -6 6 -13z"/>
<path d="M3250 3996 c0 -3 15 -27 34 -53 18 -27 48 -77 65 -112 18 -34 35 -61
38 -58 6 7 -49 117 -88 173 -28 41 -49 62 -49 50z"/>
<path d="M2733 3924 c2 -44 8 -67 22 -80 18 -19 19 -19 11 1 -4 11 -14 47 -22
80 l-14 60 3 -61z"/>
<path d="M3188 3894 c-3 -3 3 -27 13 -53 10 -27 15 -52 11 -56 -4 -5 -2 -5 4
-2 13 8 3 69 -15 91 -6 7 -8 16 -4 19 3 4 4 7 1 7 -2 0 -7 -2 -10 -6z"/>
<path d="M3150 3870 c0 -24 20 -89 29 -95 10 -6 -6 71 -19 94 -8 14 -9 14 -10
1z"/>
<path d="M255 3820 c3 -5 19 -8 34 -7 38 3 29 17 -10 17 -17 0 -28 -4 -24 -10z"/>
<path d="M3652 3743 c2 -5 15 -30 28 -58 13 -27 25 -44 27 -38 6 16 -37 103
-50 103 -5 0 -7 -3 -5 -7z"/>
<path d="M3629 3689 c17 -38 41 -71 41 -56 0 13 -44 97 -52 97 -4 0 1 -18 11
-41z"/>
<path d="M726 3555 c-19 -75 -20 -93 -6 -79 5 5 10 24 12 42 1 17 5 32 8 32 3
0 7 16 8 35 4 53 -4 42 -22 -30z"/>
<path d="M3950 3445 c0 -8 129 -175 209 -270 87 -104 251 -269 284 -286 12 -6
-20 29 -72 78 -104 97 -226 235 -340 386 -69 91 -81 104 -81 92z"/>
<path d="M248 2568 c9 -9 15 -9 24 0 9 9 7 12 -12 12 -19 0 -21 -3 -12 -12z"/>
<path d="M4431 2161 c-7 -5 -11 -14 -7 -19 9 -15 36 -4 36 14 0 16 -9 18 -29
5z"/>
<path d="M4200 2150 c-11 -7 -12 -12 -4 -20 8 -8 14 -7 23 4 14 17 1 28 -19
16z"/>
<path d="M624 1977 c-3 -8 -4 -45 -2 -83 l3 -69 5 83 c5 82 4 94 -6 69z"/>
<path d="M4427 1911 c-3 -14 -1 -18 9 -14 8 3 14 11 14 19 0 21 -17 17 -23 -5z"/>
<path d="M4201 1903 c-16 -17 -11 -25 8 -14 7 5 12 13 10 19 -2 6 -10 4 -18
-5z"/>
<path d="M3862 1840 c0 -19 2 -27 5 -17 2 9 2 25 0 35 -3 9 -5 1 -5 -18z"/>
<path d="M4317 1674 c-8 -8 3 -34 14 -34 11 0 12 27 0 34 -4 3 -11 3 -14 0z"/>
<path d="M4435 1669 c-10 -15 3 -25 16 -12 7 7 7 13 1 17 -6 3 -14 1 -17 -5z"/>
<path d="M450 1514 c0 -17 22 -14 28 4 2 7 -3 12 -12 12 -9 0 -16 -7 -16 -16z"/>
<path d="M747 1487 c-3 -8 1 -21 9 -27 15 -13 17 -6 5 24 -6 17 -8 17 -14 3z"/>
<path d="M3813 1423 c-1 -16 1 -21 4 -13 3 8 10 21 16 28 6 8 5 12 -5 12 -8 0
-14 -11 -15 -27z"/>
<path d="M603 1405 c0 -9 7 -15 16 -13 19 4 18 22 -2 26 -7 2 -14 -4 -14 -13z"/>
<path d="M712 1409 c2 -6 8 -10 13 -10 5 0 11 4 13 10 2 6 -4 11 -13 11 -9 0
-15 -5 -13 -11z"/>
<path d="M395 1401 c-7 -12 12 -24 25 -16 11 7 4 25 -10 25 -5 0 -11 -4 -15
-9z"/>
<path d="M502 1399 c2 -6 8 -10 13 -10 5 0 11 4 13 10 2 6 -4 11 -13 11 -9 0
-15 -5 -13 -11z"/>
<path d="M3693 1365 c-7 -19 -5 -21 27 -29 25 -6 25 -6 2 6 -13 6 -21 17 -18
25 3 7 3 13 0 13 -2 0 -7 -7 -11 -15z"/>
<path d="M3810 1360 c0 -6 -10 -15 -22 -20 -18 -7 -14 -8 16 -3 32 5 42 2 53
-13 9 -13 16 -15 21 -8 4 6 21 18 37 27 26 14 27 16 8 14 -13 -1 -23 -4 -23
-8 0 -17 -40 -15 -59 2 -23 21 -31 24 -31 9z"/>
<path d="M660 1290 c0 -13 5 -18 14 -14 8 3 12 12 9 20 -8 21 -23 17 -23 -6z"/>
<path d="M455 1289 c-10 -15 3 -25 16 -12 7 7 7 13 1 17 -6 3 -14 1 -17 -5z"/>
<path d="M550 1285 c0 -8 7 -15 15 -15 8 0 15 7 15 15 0 8 -7 15 -15 15 -8 0
-15 -7 -15 -15z"/>
<path d="M505 1180 c-7 -12 2 -30 16 -30 12 0 12 27 0 35 -5 3 -12 1 -16 -5z"/>
<path d="M607 1183 c-13 -12 -7 -23 13 -23 13 0 18 5 14 15 -7 16 -17 19 -27
8z"/>
<path d="M715 1179 c-10 -15 3 -25 16 -12 7 7 7 13 1 17 -6 3 -14 1 -17 -5z"/>
<path d="M396 1164 c-3 -8 1 -14 9 -14 20 0 28 17 11 23 -8 3 -17 -1 -20 -9z"/>
<path d="M2936 1143 c-11 -11 -6 -23 9 -23 8 0 15 4 15 9 0 13 -16 22 -24 14z"/>
<path d="M3047 1143 c-12 -11 -8 -23 8 -23 8 0 15 7 15 15 0 16 -12 20 -23 8z"/>
<path d="M2710 1125 c0 -8 5 -15 10 -15 6 0 10 7 10 15 0 8 -4 15 -10 15 -5 0
-10 -7 -10 -15z"/>
<path d="M2827 1133 c-12 -12 -7 -22 8 -17 8 4 15 10 15 15 0 11 -14 12 -23 2z"/>
<path d="M766 1073 c-11 -11 -6 -23 9 -23 8 0 15 4 15 9 0 13 -16 22 -24 14z"/>
<path d="M450 1055 c0 -9 5 -15 11 -13 6 2 11 8 11 13 0 5 -5 11 -11 13 -6 2
-11 -4 -11 -13z"/>
<path d="M557 1064 c-8 -8 1 -24 14 -24 5 0 9 7 9 15 0 15 -12 20 -23 9z"/>
<path d="M2876 1022 c-2 -4 -1 -14 4 -21 10 -17 31 -5 23 14 -6 16 -19 20 -27
7z"/>
<path d="M2987 1016 c-3 -8 0 -17 8 -20 14 -5 28 17 18 28 -10 10 -21 7 -26
-8z"/>
<path d="M820 945 c0 -8 4 -15 9 -15 5 0 11 7 15 15 3 9 0 15 -9 15 -8 0 -15
-7 -15 -15z"/>
<path d="M400 935 c0 -8 5 -15 10 -15 6 0 10 7 10 15 0 8 -4 15 -10 15 -5 0
-10 -7 -10 -15z"/>
<path d="M500 935 c7 -8 16 -12 21 -9 13 8 1 24 -18 24 -13 0 -13 -3 -3 -15z"/>
<path d="M600 940 c0 -5 6 -10 14 -10 8 0 18 5 21 10 3 6 -3 10 -14 10 -12 0
-21 -4 -21 -10z"/>
<path d="M3050 903 c0 -13 5 -23 10 -23 13 0 13 11 0 30 -8 12 -10 11 -10 -7z"/>
<path d="M2935 900 c-8 -13 4 -32 16 -25 12 8 12 35 0 35 -6 0 -13 -4 -16 -10z"/>
<path d="M870 834 c0 -14 3 -14 15 -4 8 7 15 14 15 16 0 2 -7 4 -15 4 -8 0
-15 -7 -15 -16z"/>
<path d="M980 835 c0 -8 5 -15 10 -15 6 0 10 7 10 15 0 8 -4 15 -10 15 -5 0
-10 -7 -10 -15z"/>
<path d="M1082 838 c2 -6 10 -14 16 -16 7 -2 10 2 6 12 -7 18 -28 22 -22 4z"/>
<path d="M454 829 c-3 -6 -1 -16 5 -22 8 -8 11 -5 11 11 0 24 -5 28 -16 11z"/>
<path d="M557 833 c-12 -11 -8 -23 8 -23 8 0 15 7 15 15 0 16 -12 20 -23 8z"/>
<path d="M2985 780 c-3 -6 1 -13 10 -16 19 -8 30 0 20 15 -8 14 -22 14 -30 1z"/>
<path d="M3046 663 c-11 -11 -6 -23 9 -23 8 0 15 4 15 9 0 13 -16 22 -24 14z"/>
<path d="M870 605 c0 -16 16 -20 24 -6 3 5 -1 11 -9 15 -9 3 -15 0 -15 -9z"/>
<path d="M977 614 c-8 -8 1 -24 14 -24 5 0 9 7 9 15 0 15 -12 20 -23 9z"/>
<path d="M660 595 c0 -9 5 -15 11 -13 6 2 11 8 11 13 0 5 -5 11 -11 13 -6 2
-11 -4 -11 -13z"/>
<path d="M766 595 c4 -8 10 -12 15 -9 14 8 10 24 -6 24 -9 0 -12 -6 -9 -15z"/>
<path d="M1110 525 c0 -15 71 -133 117 -195 94 -127 222 -219 328 -235 46 -7
29 10 -21 20 -71 15 -95 25 -88 37 4 6 3 8 -3 5 -13 -8 -115 67 -105 78 4 5 3
6 -3 3 -5 -3 -20 5 -33 18 -12 13 -20 24 -16 24 4 0 -6 12 -21 27 -28 29 -85
107 -85 118 0 3 -16 29 -35 58 -19 28 -35 47 -35 42z"/>
<path d="M397 484 c-8 -8 1 -24 14 -24 5 0 9 7 9 15 0 15 -12 20 -23 9z"/>
<path d="M500 475 c0 -8 5 -15 10 -15 6 0 10 7 10 15 0 8 -4 15 -10 15 -5 0
-10 -7 -10 -15z"/>
<path d="M2527 374 c-59 -37 -73 -58 -20 -30 39 20 99 66 87 66 -5 0 -36 -16
-67 -36z"/>
<path d="M2294 235 c-10 -8 -14 -15 -8 -15 5 0 19 7 30 15 10 8 14 15 8 15 -5
0 -19 -7 -30 -15z"/>
<path d="M2039 156 c-5 -5 -101 -20 -194 -31 -56 -7 -73 -15 -29 -15 38 0 211
27 249 39 29 9 29 9 4 10 -14 1 -28 -1 -30 -3z"/>
</g>
</svg>
